<svg width="344" height="197" viewBox="0 0 344 197" fill="none" xmlns="http://www.w3.org/2000/svg">
<path d="M0 25C0 11.1929 11.1929 0 25 0H319C332.807 0 344 11.1929 344 25V172C344 185.807 332.807 197 319 197H25C11.1929 197 0 185.807 0 172V25Z" fill="url(#paint0_linear_239_153)"/>
<mask id="mask0_239_153" style="mask-type:alpha" maskUnits="userSpaceOnUse" x="0" y="0" width="344" height="197">
<path d="M0 25C0 11.1929 11.1929 0 25 0H319C332.807 0 344 11.1929 344 25V172C344 185.807 332.807 197 319 197H25C11.1929 197 0 185.807 0 172V25Z" fill="url(#paint1_linear_239_153)"/>
</mask>
<g mask="url(#mask0_239_153)">
<path d="M95.2449 115.585C94.953 115.834 94.6586 115.97 94.3618 115.992C94.0771 116.004 93.823 115.916 93.5995 115.728C93.3656 115.528 93.1899 115.236 93.0726 114.852L88.7718 100.061C88.6286 99.5735 88.6042 99.163 88.6985 98.83C88.7945 98.4744 88.9885 98.1719 89.2805 97.9225C89.5604 97.6835 89.8773 97.5495 90.2314 97.5207C90.5872 97.4692 90.9949 97.5524 91.4544 97.7701L105.409 104.315C105.782 104.481 106.049 104.695 106.21 104.957C106.371 105.219 106.423 105.49 106.367 105.77C106.301 106.037 106.128 106.29 105.848 106.529C105.507 106.82 105.172 106.969 104.842 106.977C104.514 106.963 104.132 106.848 103.695 106.632L100.155 104.889L101.686 104.686L93.9847 111.264L94.4246 109.784L95.6103 113.537C95.7535 114.025 95.8075 114.421 95.7723 114.724C95.737 115.028 95.5613 115.315 95.2449 115.585ZM91.5354 100.636L94.171 108.896L93.1978 108.717L99.293 103.511L99.3356 104.484L91.5719 100.605L91.5354 100.636ZM109.865 103.097C109.488 103.419 109.108 103.565 108.724 103.535C108.343 103.483 107.991 103.268 107.668 102.89L98.4875 92.1416C98.155 91.7523 97.9977 91.3711 98.0157 90.998C98.0459 90.6146 98.2496 90.2617 98.6267 89.9396C99.0039 89.6175 99.3781 89.4767 99.7494 89.5172C100.133 89.5474 100.491 89.7572 100.823 90.1465L110.004 100.895C110.327 101.272 110.484 101.654 110.476 102.039C110.458 102.412 110.254 102.765 109.865 103.097ZM113.208 93.5512C112.976 93.7486 112.732 93.8315 112.473 93.7998C112.216 93.7456 111.979 93.5907 111.761 93.3352C111.438 92.9581 111.18 92.5689 110.984 92.1676C110.791 91.7439 110.652 91.2733 110.568 90.756C110.483 90.2387 110.451 89.646 110.469 88.9779C110.475 88.4676 110.458 88.0407 110.417 87.697C110.377 87.3308 110.3 87.0182 110.184 86.7595C110.08 86.4903 109.935 86.2462 109.748 86.0272C109.405 85.6257 108.989 85.4341 108.499 85.4523C108.01 85.4706 107.498 85.7083 106.962 86.1655C106.476 86.5812 106.089 87.0274 105.802 87.5042C105.516 87.9584 105.271 88.4725 105.067 89.0466C104.935 89.4333 104.754 89.7142 104.525 89.8891C104.297 90.0414 104.059 90.1078 103.811 90.0883C103.563 90.0687 103.337 89.9772 103.135 89.8137C102.932 89.6503 102.791 89.4235 102.711 89.1336C102.632 88.8436 102.647 88.5044 102.757 88.1158C102.976 87.3613 103.334 86.6235 103.834 85.9024C104.323 85.1692 104.853 84.5583 105.425 84.0699C106.191 83.4153 106.97 82.9715 107.76 82.7386C108.562 82.4953 109.313 82.4636 110.014 82.6436C110.727 82.8131 111.343 83.2021 111.863 83.8104C112.185 84.1875 112.437 84.5932 112.618 85.0274C112.789 85.4494 112.899 85.9346 112.946 86.4831C112.984 87.0194 112.956 87.6641 112.862 88.4171C112.776 89.0799 112.737 89.6499 112.745 90.1272C112.765 90.5941 112.829 91.002 112.938 91.351C113.059 91.6897 113.226 92.0205 113.439 92.3437C113.572 92.5244 113.619 92.7267 113.578 92.9505C113.55 93.1639 113.427 93.3641 113.208 93.5512ZM116.429 97.3965C116.015 97.7498 115.571 97.9078 115.098 97.8705C114.636 97.8229 114.234 97.5983 113.891 97.1968C113.559 96.8075 113.41 96.3873 113.445 95.9361C113.483 95.4624 113.708 95.0489 114.122 94.6956C114.548 94.3319 114.985 94.179 115.435 94.2371C115.886 94.2726 116.278 94.485 116.61 94.8743C116.953 95.2758 117.112 95.7082 117.087 96.1715C117.074 96.6244 116.855 97.0327 116.429 97.3965Z" fill="white"/>
<path d="M295.1 59.6818C294.752 59.8449 294.432 59.8977 294.14 59.8403C293.863 59.7761 293.641 59.6238 293.475 59.3835C293.303 59.1287 293.211 58.8007 293.199 58.3996L292.972 42.9978C292.964 42.4894 293.049 42.0871 293.228 41.7909C293.415 41.4735 293.682 41.2333 294.03 41.0702C294.363 40.9139 294.704 40.8687 295.053 40.9347C295.41 40.9794 295.781 41.1677 296.166 41.4994L307.887 51.5091C308.203 51.7675 308.404 52.0446 308.489 52.3402C308.575 52.6358 308.554 52.9108 308.426 53.1653C308.291 53.4053 308.057 53.6034 307.724 53.7597C307.318 53.95 306.955 54.0053 306.635 53.9257C306.323 53.8249 305.984 53.6124 305.62 53.2884L302.669 50.67L304.199 50.88L295.03 55.1815L295.846 53.8706L295.995 57.8038C296.004 58.3122 295.951 58.7082 295.836 58.9916C295.722 59.2751 295.476 59.5051 295.1 59.6818ZM295.485 44.2846L295.837 52.947L294.946 52.5167L302.203 49.1123L301.986 50.0624L295.528 44.2642L295.485 44.2846ZM312.507 51.5158C312.058 51.7265 311.652 51.7664 311.291 51.6357C310.936 51.4837 310.654 51.1832 310.443 50.7341L304.44 37.9364C304.222 37.4728 304.172 37.0636 304.288 36.7086C304.419 36.3468 304.709 36.0606 305.158 35.85C305.607 35.6393 306.005 35.6027 306.352 35.7403C306.714 35.871 307.004 36.1681 307.221 36.6317L313.225 49.4294C313.435 49.8785 313.486 50.2877 313.376 50.6572C313.26 51.0122 312.97 51.2984 312.507 51.5158ZM318.26 43.197C317.985 43.3261 317.726 43.3411 317.486 43.242C317.252 43.1216 317.064 42.9094 316.922 42.6052C316.711 42.1561 316.565 41.7123 316.483 41.2736C316.408 40.8137 316.399 40.3231 316.455 39.802C316.511 39.2809 316.637 38.7007 316.831 38.0614C316.973 37.571 317.069 37.1547 317.12 36.8125C317.18 36.4489 317.188 36.127 317.145 35.8468C317.116 35.5597 317.04 35.2859 316.918 35.0251C316.694 34.5471 316.343 34.252 315.867 34.1399C315.39 34.0278 314.833 34.1212 314.195 34.4202C313.616 34.692 313.125 35.0197 312.721 35.4033C312.326 35.7656 311.954 36.1965 311.605 36.6959C311.374 37.0338 311.125 37.2566 310.858 37.3644C310.598 37.4509 310.351 37.4519 310.117 37.3673C309.883 37.2827 309.69 37.1348 309.538 36.9234C309.385 36.712 309.31 36.456 309.31 36.1554C309.31 35.8548 309.415 35.5317 309.624 35.1862C310.034 34.5165 310.576 33.9002 311.249 33.3373C311.914 32.7598 312.588 32.3114 313.268 31.992C314.181 31.5639 315.049 31.3423 315.873 31.3271C316.711 31.3051 317.444 31.4738 318.072 31.833C318.714 32.1855 319.205 32.7239 319.545 33.4482C319.756 33.8972 319.891 34.3551 319.951 34.8219C320.004 35.2741 319.981 35.771 319.881 36.3125C319.775 36.8395 319.577 37.4537 319.288 38.155C319.029 38.7713 318.84 39.3105 318.721 39.7728C318.617 40.2283 318.571 40.6387 318.583 41.0041C318.61 41.3626 318.683 41.7259 318.803 42.0939C318.883 42.3035 318.875 42.5109 318.776 42.716C318.693 42.9143 318.521 43.0746 318.26 43.197ZM320.347 47.7585C319.854 47.9895 319.384 48.0243 318.938 47.8628C318.505 47.6945 318.177 47.3714 317.953 46.8934C317.735 46.4298 317.703 45.9853 317.857 45.5596C318.019 45.1127 318.346 44.7738 318.838 44.5427C319.345 44.3049 319.808 44.2735 320.225 44.4486C320.651 44.6024 320.973 44.9111 321.19 45.3746C321.414 45.8526 321.453 46.3117 321.306 46.7518C321.173 47.1851 320.854 47.5206 320.347 47.7585Z" fill="white"/>
<path d="M20.7672 31.7057C20.4206 31.5405 20.1768 31.3268 20.0359 31.0647C19.9094 30.8095 19.8864 30.5415 19.967 30.2609C20.0545 29.9658 20.2496 29.6866 20.5524 29.4232L32.3126 19.4752C32.7 19.1459 33.065 18.9565 33.4076 18.9071C33.7715 18.8501 34.1268 18.9042 34.4735 19.0695C34.8057 19.2278 35.057 19.4628 35.2275 19.7745C35.4193 20.0786 35.5093 20.4848 35.4974 20.9932L35.1979 36.4036C35.1985 36.8115 35.1117 37.1424 34.9376 37.3961C34.7634 37.6499 34.5374 37.8081 34.2595 37.8706C33.9884 37.9186 33.6868 37.8635 33.3546 37.7051C32.9502 37.5124 32.6772 37.2671 32.5356 36.9692C32.4153 36.6637 32.3649 36.2674 32.3843 35.7804L32.5353 31.8378L33.3438 33.1537L24.2012 28.7961L25.7325 28.5954L22.7867 31.206C22.3993 31.5354 22.0598 31.7457 21.7681 31.8371C21.4764 31.9285 21.1427 31.8847 20.7672 31.7057ZM32.9122 22.2336L26.4405 28.0024L26.2077 27.0406L33.4438 30.4895L32.5717 30.9246L32.9555 22.2542L32.9122 22.2336ZM38.124 39.9783C37.6762 39.7649 37.3881 39.4769 37.2596 39.1144C37.1524 38.7442 37.2055 38.3353 37.4189 37.8876L43.5009 25.1269C43.7212 24.6647 44.0054 24.3659 44.3535 24.2305C44.7161 24.102 45.1213 24.1444 45.569 24.3578C46.0167 24.5712 46.2976 24.8558 46.4117 25.2115C46.5402 25.574 46.4943 25.9864 46.274 26.4486L40.192 39.2093C39.9786 39.657 39.6944 39.9558 39.3394 40.1057C38.9913 40.241 38.5861 40.1986 38.124 39.9783ZM48.204 39.1463C47.9296 39.0155 47.7543 38.8256 47.678 38.5766C47.6231 38.32 47.6679 38.04 47.8124 37.7367C48.0258 37.289 48.276 36.8942 48.563 36.5524C48.8713 36.2031 49.2446 35.8847 49.6829 35.5973C50.1212 35.3099 50.6492 35.0387 51.267 34.7837C51.7356 34.5817 52.1185 34.3919 52.4157 34.2146C52.7342 34.0296 52.9881 33.8316 53.1774 33.6205C53.3811 33.4163 53.5449 33.1842 53.6688 32.9242C53.896 32.4475 53.9016 31.9894 53.6858 31.5498C53.4699 31.1101 53.0443 30.7389 52.4088 30.436C51.831 30.1606 51.266 29.9888 50.7136 29.9205C50.1826 29.8446 49.6134 29.8303 49.0059 29.8776C48.5987 29.9139 48.2685 29.8629 48.0154 29.7245C47.7837 29.5786 47.6262 29.3884 47.543 29.1538C47.4599 28.9192 47.4517 28.676 47.5185 28.4242C47.5853 28.1725 47.735 27.9514 47.9676 27.7609C48.2002 27.5705 48.5163 27.4464 48.916 27.3888C49.6941 27.281 50.514 27.3085 51.3759 27.4711C52.2446 27.6193 53.0184 27.8552 53.6973 28.1788C54.6072 28.6124 55.3293 29.1427 55.8636 29.7696C56.4123 30.4033 56.7471 31.0769 56.8679 31.7903C57.0032 32.5105 56.8987 33.2318 56.5545 33.9539C56.3411 34.4017 56.073 34.7968 55.7503 35.1392C55.4344 35.4673 55.0357 35.7646 54.5541 36.0314C54.0793 36.2837 53.479 36.5204 52.7532 36.7417C52.1127 36.9327 51.5761 37.1289 51.1434 37.3303C50.7251 37.5386 50.3786 37.7634 50.1041 38.0047C49.844 38.253 49.6096 38.5401 49.4011 38.8661C49.2903 39.0614 49.1244 39.1862 48.9036 39.2405C48.6972 39.3016 48.464 39.2702 48.204 39.1463ZM46.0026 43.6537C45.5115 43.4196 45.1866 43.0786 45.0279 42.6308C44.8836 42.1898 44.925 41.731 45.1522 41.2543C45.3724 40.7922 45.6959 40.4855 46.1224 40.3343C46.5703 40.1755 47.0398 40.2132 47.5308 40.4472C48.0363 40.6882 48.354 41.0257 48.4839 41.4598C48.6351 41.8864 48.6005 42.3307 48.3802 42.7929C48.1531 43.2695 47.8228 43.5907 47.3893 43.7563C46.9704 43.9288 46.5081 43.8946 46.0026 43.6537Z" fill="white"/>
<path d="M136.457 107.86C136.457 107.86 118.367 57.9101 123.767 57.9103C127.432 57.9103 133.338 71.598 136.753 80.389C137.177 81.481 139.018 81.0979 138.957 79.928C138.266 66.6066 137.509 40.6302 142.127 40.6302C146.928 40.6302 150.6 62.5838 152.018 72.5412C152.172 73.6174 153.76 73.7472 154.087 72.7106C157.348 62.3807 165.361 38.434 169.397 39.0102C175.067 39.8198 166.967 77.3503 166.967 77.3503M175.337 148.36H163.576C163.325 148.36 163.085 148.453 162.906 148.627C162.34 149.178 161.068 150.482 160.487 151.6C159.834 152.855 159.572 154.796 159.47 155.977C159.422 156.537 159.87 157 160.432 157H213.976C214.745 157 215.071 156.021 214.456 155.559C214.302 155.444 214.111 155.388 213.918 155.394C213.383 155.409 212.248 155.403 211.517 155.11C210.964 154.889 210.323 154.377 209.948 154.051C209.739 153.87 209.471 153.768 209.195 153.764C208.442 153.752 206.897 153.638 206.117 152.95C205.321 152.248 205.103 150.525 205.048 149.402C205.021 148.834 204.563 148.36 203.994 148.36H189.377M189.377 148.36L193.157 134.05L194.642 126.76L196.127 119.47H185.248C184.813 119.47 184.427 119.752 184.295 120.167L175.337 148.36M175.337 148.36H189.377M196.127 119.47L187.217 148.09" stroke="black" stroke-linecap="round"/>
<path d="M45 151.6H133.83" stroke="black" stroke-linecap="round"/>
<path d="M205.38 151.6H294.211" stroke="black" stroke-linecap="round"/>
<path d="M180.81 151.6H185.13" stroke="black" stroke-linecap="round"/>
<path d="M158.94 151.601H160.02" stroke="black" stroke-linecap="round"/>
<path d="M147.33 108.13H130.358C129.761 108.13 129.298 108.648 129.364 109.24L134.541 155.84C134.598 156.347 135.026 156.73 135.535 156.73H157.206C157.728 156.73 158.162 156.329 158.203 155.808L160.29 129.19" stroke="black" stroke-linecap="round"/>
<path d="M194.31 128.65H233.19L235.446 126.395C235.718 126.123 235.81 125.72 235.683 125.357L219.385 78.8296C219.244 78.4286 218.866 78.1602 218.441 78.1602H140.646C140.145 78.1602 139.721 78.5312 139.655 79.028L139.23 82.2102L156.268 127.999C156.414 128.391 156.787 128.65 157.205 128.65H181.08M139.23 82.2102L215.486 82.4777C215.903 82.4792 216.276 82.7401 216.421 83.132L233.19 128.65" stroke="black" stroke-linecap="round"/>
<path d="M8.62349 147.88C7.79227 148.478 6.97984 148.773 6.18623 148.766C5.42725 148.734 4.77155 148.444 4.21913 147.895C3.64179 147.312 3.23974 146.497 3.01298 145.451L-5.13699 105.192C-5.40936 103.864 -5.38333 102.768 -5.05892 101.903C-4.7248 100.98 -4.14212 100.219 -3.31089 99.6208C-2.51429 99.0477 -1.64232 98.762 -0.694967 98.7638C0.262102 98.7059 1.32707 99.0173 2.49993 99.6977L38.1324 120.185C39.0865 120.707 39.7483 121.335 40.1179 122.068C40.4874 122.801 40.5668 123.532 40.356 124.262C40.1203 124.957 39.6041 125.591 38.8075 126.164C37.8378 126.862 36.9138 127.185 36.0358 127.133C35.1674 127.022 34.1765 126.631 33.0632 125.961L24.0425 120.545L28.1561 120.345L6.2324 136.118L7.72962 132.282L10.0486 142.518C10.3209 143.847 10.3766 144.91 10.2157 145.709C10.0547 146.509 9.52399 147.232 8.62349 147.88ZM2.07956 107.332L7.25268 129.865L4.70588 129.175L22.0578 116.691L21.9551 119.288L2.18346 107.258L2.07956 107.332ZM50.2442 117.936C49.1706 118.709 48.1275 119.012 47.1151 118.847C46.1125 118.622 45.2249 117.973 44.4525 116.899L22.4377 86.2997C21.6403 85.1914 21.3069 84.1435 21.4375 83.156C21.6027 82.1437 22.2221 81.2512 23.2958 80.4788C24.3694 79.7063 25.3952 79.4152 26.3729 79.6053C27.3853 79.7705 28.2902 80.4072 29.0875 81.5155L51.1023 112.115C51.8748 113.189 52.2082 114.237 52.1025 115.259C51.972 116.246 51.3525 117.139 50.2442 117.936ZM61.2427 93.3088C60.5846 93.7822 59.9156 93.9482 59.2356 93.8066C58.5653 93.6056 57.9685 93.1414 57.4453 92.414C56.6728 91.3404 56.0714 90.2488 55.6411 89.1392C55.2205 87.9701 54.9557 86.6888 54.8468 85.2955C54.7379 83.9021 54.7821 82.3197 54.9794 80.5484C55.1087 79.1939 55.1569 78.0554 55.124 77.133C55.1008 76.151 54.964 75.3033 54.7136 74.5899C54.4978 73.8516 54.1657 73.1708 53.7171 72.5474C52.8949 71.4044 51.8314 70.8029 50.5267 70.7429C49.222 70.6829 47.8078 71.201 46.2838 72.2974C44.8984 73.2941 43.7713 74.3941 42.9025 75.5974C42.0434 76.7411 41.279 78.0531 40.6095 79.5334C40.1715 80.5319 39.6283 81.238 38.98 81.6519C38.3414 82.0063 37.6945 82.13 37.0394 82.0231C36.3844 81.9162 35.8055 81.6231 35.3029 81.1437C34.8004 80.6643 34.4758 80.0305 34.3293 79.2424C34.1827 78.4542 34.2987 77.5561 34.6772 76.5479C35.4244 74.5912 36.5415 72.71 38.0282 70.9045C39.4901 69.0644 41.035 67.5587 42.6628 66.3876C44.8448 64.8178 47.0113 63.811 49.1624 63.3672C51.3481 62.8984 53.3522 62.9809 55.1747 63.6145C57.0318 64.2232 58.5832 65.3934 59.8291 67.1252C60.6016 68.1988 61.1808 69.3327 61.5668 70.5267C61.9278 71.6861 62.1109 72.9999 62.1159 74.468C62.096 75.9015 61.8786 77.6084 61.4637 79.5888C61.0878 81.3311 60.8573 82.8372 60.7724 84.1072C60.722 85.3523 60.8027 86.4507 61.0142 87.4023C61.2604 88.3289 61.6306 89.2453 62.1247 90.1512C62.4389 90.661 62.5176 91.2088 62.3609 91.7947C62.2388 92.3555 61.8661 92.8602 61.2427 93.3088ZM68.9505 104.241C67.7729 105.089 66.5588 105.41 65.3082 105.206C64.0922 104.977 63.0731 104.291 62.2508 103.148C61.4535 102.04 61.1519 100.89 61.3463 99.6993C61.5503 98.4487 62.2412 97.3998 63.4187 96.5526C64.6309 95.6805 65.8277 95.3713 67.009 95.6252C68.2001 95.8196 69.1943 96.4709 69.9917 97.5792C70.8139 98.7221 71.1404 99.9065 70.9709 101.132C70.8362 102.333 70.1627 103.369 68.9505 104.241Z" fill="#EFEFEF" fill-opacity="0.35"/>
<path d="M260.212 111.216C259.522 110.878 259.04 110.445 258.764 109.918C258.516 109.404 258.477 108.868 258.644 108.309C258.826 107.72 259.222 107.166 259.833 106.647L283.576 87.0155C284.358 86.3655 285.092 85.9949 285.778 85.9038C286.507 85.798 287.217 85.9142 287.906 86.2524C288.567 86.5765 289.064 87.0521 289.398 87.6792C289.775 88.2917 289.946 89.1062 289.911 90.1225L288.966 120.935C288.958 121.751 288.777 122.41 288.423 122.914C288.069 123.417 287.614 123.729 287.057 123.847C286.513 123.937 285.911 123.82 285.251 123.496C284.446 123.102 283.906 122.605 283.629 122.006C283.395 121.392 283.304 120.599 283.353 119.625L283.744 111.744L285.331 114.394L267.145 105.474L270.212 105.107L264.262 110.262C263.48 110.912 262.796 111.325 262.211 111.501C261.625 111.677 260.959 111.582 260.212 111.216ZM284.713 92.5452L271.641 103.937L271.197 102.008L285.591 109.068L283.837 109.919L284.799 92.5875L284.713 92.5452ZM294.738 128.149C293.847 127.713 293.277 127.13 293.028 126.402C292.822 125.66 292.938 124.843 293.375 123.952L305.824 98.5688C306.275 97.6495 306.85 97.0583 307.549 96.7953C308.277 96.5464 309.087 96.6404 309.977 97.0772C310.868 97.5141 311.423 98.0894 311.643 98.8033C311.892 99.5313 311.791 100.355 311.34 101.274L298.891 126.658C298.454 127.548 297.879 128.14 297.166 128.431C296.466 128.694 295.657 128.6 294.738 128.149ZM314.915 126.711C314.369 126.444 314.023 126.06 313.876 125.56C313.772 125.046 313.868 124.487 314.164 123.884C314.601 122.993 315.11 122.209 315.691 121.532C316.316 120.84 317.069 120.212 317.952 119.647C318.835 119.082 319.897 118.552 321.139 118.056C322.08 117.662 322.85 117.291 323.449 116.943C324.09 116.58 324.602 116.19 324.985 115.772C325.397 115.368 325.73 114.908 325.984 114.39C326.449 113.442 326.47 112.526 326.048 111.642C325.627 110.758 324.784 110.006 323.52 109.386C322.37 108.822 321.244 108.466 320.141 108.317C319.081 108.154 317.943 108.112 316.727 108.193C315.912 108.257 315.252 108.147 314.749 107.865C314.289 107.568 313.978 107.184 313.817 106.713C313.656 106.242 313.646 105.755 313.785 105.253C313.924 104.751 314.228 104.312 314.698 103.937C315.167 103.561 315.802 103.32 316.603 103.214C318.161 103.016 319.8 103.089 321.52 103.434C323.254 103.75 324.797 104.239 326.147 104.901C327.957 105.789 329.389 106.865 330.444 108.131C331.527 109.411 332.181 110.765 332.407 112.195C332.661 113.638 332.436 115.078 331.732 116.515C331.295 117.405 330.75 118.189 330.097 118.867C329.458 119.516 328.654 120.102 327.684 120.624C326.729 121.118 325.524 121.578 324.067 122.004C322.782 122.372 321.704 122.752 320.834 123.146C319.993 123.553 319.295 123.995 318.741 124.471C318.215 124.962 317.74 125.531 317.316 126.178C317.09 126.566 316.755 126.812 316.312 126.915C315.898 127.033 315.432 126.965 314.915 126.711ZM310.412 135.676C309.435 135.197 308.793 134.508 308.485 133.609C308.207 132.724 308.3 131.807 308.765 130.859C309.216 129.939 309.869 129.333 310.726 129.041C311.625 128.733 312.563 128.819 313.54 129.298C314.545 129.791 315.173 130.473 315.423 131.344C315.716 132.201 315.637 133.089 315.186 134.008C314.721 134.956 314.053 135.591 313.183 135.913C312.341 136.248 311.417 136.169 310.412 135.676Z" fill="#EFEFEF" fill-opacity="0.35"/>
</g>
<defs>
<linearGradient id="paint0_linear_239_153" x1="172" y1="0" x2="172" y2="197" gradientUnits="userSpaceOnUse">
<stop stop-color="#6E47E3"/>
<stop offset="1" stop-color="#F7F4EF"/>
</linearGradient>
<linearGradient id="paint1_linear_239_153" x1="172" y1="0" x2="172" y2="197" gradientUnits="userSpaceOnUse">
<stop stop-color="#6E47E3"/>
<stop offset="1" stop-color="#F7F4EF"/>
</linearGradient>
</defs>
</svg>
