<svg width="1275" height="286" viewBox="0 0 1275 286" fill="none" xmlns="http://www.w3.org/2000/svg">
<g clip-path="url(#clip0_225_84)">
<path d="M0 25C0 11.1929 11.1929 0 25 0H1250C1263.81 0 1275 11.1929 1275 25V261C1275 274.807 1263.81 286 1250 286H25C11.1929 286 0 274.807 0 261V25Z" fill="url(#paint0_linear_225_84)"/>
<mask id="mask0_225_84" style="mask-type:alpha" maskUnits="userSpaceOnUse" x="0" y="0" width="1275" height="286">
<path d="M0 25C0 11.1929 11.1929 0 25 0H1250C1263.81 0 1275 11.1929 1275 25V261C1275 274.807 1263.81 286 1250 286H25C11.1929 286 0 274.807 0 261V25Z" fill="url(#paint1_linear_225_84)"/>
</mask>
<g mask="url(#mask0_225_84)">
<path d="M1121.35 124.725C1119.4 125.352 1117.67 125.415 1116.17 124.913C1114.74 124.386 1113.67 123.43 1112.96 122.046C1112.22 120.581 1111.95 118.783 1112.17 116.654L1121.41 35.0236C1121.71 32.3281 1122.43 30.2579 1123.58 28.8128C1124.78 27.2603 1126.36 26.1706 1128.31 25.5435C1130.18 24.9427 1132.01 24.9351 1133.82 25.5209C1135.67 25.9993 1137.51 27.2466 1139.32 29.2628L1194.54 90.162C1196.03 91.743 1196.91 93.3444 1197.16 94.9663C1197.41 96.5882 1197.11 98.0288 1196.26 99.2881C1195.39 100.466 1194.02 101.356 1192.15 101.957C1189.87 102.688 1187.92 102.735 1186.28 102.097C1184.69 101.351 1183.05 99.9982 1181.34 98.0371L1167.5 82.1845L1175.45 84.3332L1124.03 100.871L1129.24 94.4899L1127.36 115.398C1127.06 118.093 1126.51 120.152 1125.72 121.574C1124.92 122.996 1123.46 124.046 1121.35 124.725ZM1133.83 43.5344L1129.82 89.598L1125.4 86.7176L1166.1 73.6285L1164.3 78.5075L1134.07 43.456L1133.83 43.5344ZM1218.97 93.3296C1216.45 94.1395 1214.28 94.076 1212.46 93.1391C1210.69 92.0949 1209.4 90.3136 1208.59 87.7953L1185.5 16.0237C1184.67 13.4242 1184.68 11.2249 1185.53 9.42594C1186.47 7.60079 1188.2 6.28327 1190.72 5.47337C1193.24 4.66346 1195.37 4.74001 1197.11 5.703C1198.94 6.63986 1200.27 8.40806 1201.1 11.0076L1224.18 82.7792C1224.99 85.2975 1224.98 87.4967 1224.15 89.377C1223.3 91.176 1221.57 92.4935 1218.97 93.3296ZM1255.05 53.223C1253.5 53.7194 1252.13 53.6239 1250.92 52.9365C1249.77 52.1417 1248.92 50.8913 1248.37 49.1853C1247.56 46.667 1247.09 44.2198 1246.95 41.8435C1246.87 39.3599 1247.15 36.7587 1247.8 34.04C1248.45 31.3213 1249.51 28.337 1250.97 25.0872C1252.05 22.5889 1252.84 20.4518 1253.35 18.6761C1253.91 16.793 1254.17 15.0956 1254.13 13.584C1254.17 12.0462 1253.96 10.5462 1253.49 9.08402C1252.63 6.40324 1250.97 4.60463 1248.53 3.68818C1246.08 2.77172 1243.07 2.88826 1239.5 4.0378C1236.25 5.08284 1233.43 6.48323 1231.03 8.23898C1228.69 9.88737 1226.43 11.9143 1224.25 14.32C1222.8 15.9508 1221.33 16.9607 1219.84 17.3498C1218.41 17.6314 1217.1 17.4692 1215.92 16.863C1214.74 16.2568 1213.82 15.343 1213.16 14.1216C1212.5 12.9002 1212.27 11.4945 1212.48 9.9045C1212.68 8.31449 1213.45 6.67651 1214.79 4.99057C1217.42 1.72604 1220.7 -1.1672 1224.64 -3.68917C1228.56 -6.29238 1232.42 -8.20794 1236.24 -9.43586C1241.36 -11.0818 1246.1 -11.6658 1250.47 -11.1878C1254.91 -10.7359 1258.68 -9.34665 1261.76 -7.02021C1264.92 -4.71989 1267.15 -1.53885 1268.46 2.52293C1269.27 5.04123 1269.67 7.55525 1269.67 10.0649C1269.65 12.4934 1269.19 15.1062 1268.29 17.9033C1267.37 20.6192 1265.91 23.7341 1263.9 27.2481C1262.12 30.3326 1260.75 33.0572 1259.81 35.422C1258.95 37.7607 1258.43 39.9006 1258.24 41.8417C1258.14 43.7566 1258.28 45.7281 1258.67 47.7562C1258.95 48.9196 1258.76 50.0106 1258.11 51.0291C1257.53 52.0214 1256.51 52.7528 1255.05 53.223ZM1262.99 78.7688C1260.23 79.657 1257.72 79.5225 1255.47 78.3652C1253.29 77.1818 1251.78 75.2497 1250.91 72.5689C1250.08 69.9694 1250.21 67.596 1251.31 65.4488C1252.47 63.1942 1254.43 61.6227 1257.19 60.7345C1260.04 59.8201 1262.5 59.9676 1264.6 61.1772C1266.74 62.2794 1268.23 64.1302 1269.07 66.7298C1269.93 69.4105 1269.83 71.8652 1268.75 74.0936C1267.76 76.296 1265.84 77.8543 1262.99 78.7688Z" fill="#EFEFEF" fill-opacity="0.35"/>
<path d="M880.35 349.725C878.401 350.352 876.673 350.415 875.167 349.913C873.742 349.386 872.673 348.43 871.959 347.046C871.219 345.581 870.955 343.783 871.166 341.654L880.41 260.024C880.708 257.328 881.432 255.258 882.581 253.813C883.784 252.26 885.361 251.171 887.311 250.544C889.179 249.943 891.014 249.935 892.816 250.521C894.673 250.999 896.509 252.247 898.322 254.263L953.539 315.162C955.033 316.743 955.907 318.344 956.16 319.966C956.412 321.588 956.114 323.029 955.264 324.288C954.388 325.466 953.016 326.356 951.147 326.957C948.873 327.688 946.916 327.735 945.276 327.097C943.692 326.351 942.047 324.998 940.34 323.037L926.502 307.185L934.454 309.333L883.032 325.871L888.24 319.49L886.359 340.398C886.061 343.093 885.513 345.152 884.715 346.574C883.917 347.996 882.463 349.046 880.35 349.725ZM892.828 268.534L888.818 314.598L884.396 311.718L925.095 298.628L923.303 303.508L893.072 268.456L892.828 268.534ZM977.972 318.33C975.454 319.139 973.282 319.076 971.457 318.139C969.687 317.095 968.397 315.314 967.587 312.795L944.505 241.024C943.669 238.424 943.678 236.225 944.534 234.426C945.471 232.601 947.199 231.283 949.717 230.473C952.235 229.663 954.366 229.74 956.11 230.703C957.935 231.64 959.266 233.408 960.102 236.008L983.184 307.779C983.994 310.297 983.984 312.497 983.155 314.377C982.299 316.176 980.572 317.494 977.972 318.33ZM1014.05 278.223C1012.5 278.719 1011.13 278.624 1009.92 277.936C1008.77 277.142 1007.92 275.891 1007.37 274.185C1006.56 271.667 1006.09 269.22 1005.95 266.844C1005.87 264.36 1006.15 261.759 1006.8 259.04C1007.45 256.321 1008.51 253.337 1009.97 250.087C1011.05 247.589 1011.84 245.452 1012.35 243.676C1012.91 241.793 1013.17 240.096 1013.13 238.584C1013.17 237.046 1012.96 235.546 1012.49 234.084C1011.63 231.403 1009.97 229.605 1007.53 228.688C1005.08 227.772 1002.07 227.888 998.497 229.038C995.247 230.083 992.426 231.483 990.033 233.239C987.694 234.887 985.433 236.914 983.249 239.32C981.801 240.951 980.333 241.961 978.845 242.35C977.411 242.631 976.104 242.469 974.923 241.863C973.742 241.257 972.821 240.343 972.159 239.122C971.498 237.9 971.27 236.494 971.475 234.904C971.681 233.314 972.454 231.676 973.794 229.991C976.42 226.726 979.702 223.833 983.642 221.311C987.555 218.708 991.421 216.792 995.239 215.564C1000.36 213.918 1005.1 213.334 1009.47 213.812C1013.91 214.264 1017.68 215.653 1020.76 217.98C1023.92 220.28 1026.15 223.461 1027.46 227.523C1028.27 230.041 1028.67 232.555 1028.67 235.065C1028.65 237.493 1028.19 240.106 1027.29 242.903C1026.37 245.619 1024.91 248.734 1022.9 252.248C1021.12 255.333 1019.75 258.057 1018.81 260.422C1017.95 262.761 1017.43 264.901 1017.24 266.842C1017.14 268.757 1017.28 270.728 1017.67 272.756C1017.95 273.92 1017.76 275.011 1017.11 276.029C1016.53 277.021 1015.51 277.753 1014.05 278.223ZM1021.99 303.769C1019.23 304.657 1016.72 304.523 1014.47 303.365C1012.29 302.182 1010.78 300.25 1009.91 297.569C1009.08 294.969 1009.21 292.596 1010.31 290.449C1011.47 288.194 1013.43 286.623 1016.19 285.734C1019.04 284.82 1021.5 284.968 1023.6 286.177C1025.74 287.279 1027.23 289.13 1028.07 291.73C1028.93 294.411 1028.83 296.865 1027.75 299.094C1026.76 301.296 1024.84 302.854 1021.99 303.769Z" fill="#EFEFEF" fill-opacity="0.35"/>
<path d="M804.663 24.4697C803.3 23.7613 802.355 22.8735 801.828 21.8061C801.357 20.7682 801.303 19.6939 801.664 18.5832C802.054 17.4156 802.873 16.3264 804.119 15.3154L852.507 -22.8281C854.101 -24.0913 855.586 -24.798 856.962 -24.9482C858.425 -25.1256 859.838 -24.8602 861.201 -24.1518C862.507 -23.473 863.479 -22.4988 864.118 -21.2293C864.842 -19.987 865.146 -18.3507 865.028 -16.3201L861.702 45.2435C861.648 46.8743 861.255 48.1849 860.524 49.1753C859.793 50.1657 858.868 50.7667 857.748 50.9781C856.658 51.1328 855.46 50.8707 854.154 50.1919C852.564 49.3655 851.506 48.347 850.981 47.1365C850.543 45.8988 850.396 44.3078 850.541 42.3635L851.689 26.6234L854.739 31.9954L818.792 13.3125L824.942 12.7219L812.805 22.7509C811.211 24.0141 809.824 24.8082 808.646 25.1332C807.467 25.4583 806.139 25.2371 804.663 24.4697ZM854.522 -11.7186L827.854 10.4489L827.056 6.572L855.507 21.3589L851.961 22.9779L854.693 -11.6301L854.522 -11.7186ZM872.906 59.938C871.145 59.023 870.033 57.832 869.57 56.3648C869.192 54.8704 869.461 53.243 870.376 51.4826L896.452 1.31044C897.397 -0.506782 898.574 -1.66197 899.985 -2.15512C901.452 -2.61877 903.065 -2.39311 904.826 -1.47815C906.586 -0.563193 907.67 0.613104 908.077 2.05074C908.54 3.51789 908.3 5.16007 907.356 6.97729L881.279 57.1494C880.364 58.9098 879.187 60.065 877.747 60.615C876.337 61.1081 874.723 60.8825 872.906 59.938ZM913.317 58.0046C912.238 57.4438 911.563 56.6603 911.293 55.6542C911.108 54.6208 911.326 53.5079 911.946 52.3153C912.861 50.5549 913.916 49.0113 915.11 47.6847C916.391 46.3307 917.927 45.1096 919.719 44.0213C921.511 42.933 923.659 41.9218 926.164 40.9878C928.065 40.2447 929.622 39.5391 930.835 38.8711C932.134 38.1759 933.176 37.4193 933.962 36.6015C934.804 35.8132 935.491 34.9079 936.022 33.8857C936.996 32.0117 937.082 30.1811 936.28 28.3938C935.478 26.6064 933.828 25.0634 931.329 23.7648C929.057 22.5842 926.822 21.8192 924.624 21.4699C922.511 21.0933 920.238 20.9575 917.803 21.0625C916.17 21.1514 914.857 20.9018 913.864 20.3138C912.958 19.6984 912.355 18.9161 912.055 17.9668C911.755 17.0175 911.756 16.0442 912.058 15.0471C912.36 14.0499 912.988 13.1867 913.945 12.4574C914.901 11.7281 916.182 11.2759 917.787 11.1007C920.912 10.7775 924.187 11.0006 927.61 11.7698C931.062 12.4823 934.123 13.5321 936.792 14.9193C940.369 16.7787 943.183 18.9983 945.232 21.5781C947.338 24.1873 948.583 26.9262 948.968 29.7948C949.409 32.6928 948.892 35.5616 947.416 38.401C946.501 40.1614 945.375 41.7038 944.037 43.0282C942.729 44.2959 941.094 45.4296 939.132 46.4294C937.199 47.3723 934.767 48.2359 931.835 49.0201C929.248 49.6952 927.076 50.4054 925.318 51.1508C923.617 51.9256 922.201 52.7765 921.07 53.7034C919.996 54.6599 919.02 55.7753 918.141 57.0496C917.671 57.8151 916.991 58.2911 916.1 58.4775C915.267 58.6935 914.339 58.5358 913.317 58.0046ZM903.894 75.719C901.963 74.7155 900.711 73.3076 900.138 71.4953C899.622 69.7124 899.851 67.884 900.825 66.01C901.77 64.1928 903.105 63.0114 904.831 62.466C906.644 61.8932 908.515 62.1086 910.446 63.1121C912.433 64.1451 913.657 65.5383 914.116 67.2916C914.661 69.0177 914.462 70.7893 913.517 72.6065C912.543 74.4806 911.179 75.7187 909.423 76.3209C907.724 76.9527 905.881 76.7521 903.894 75.719Z" fill="#EFEFEF" fill-opacity="0.35"/>
<path d="M10.3505 290.725C8.40084 291.352 6.67305 291.415 5.16713 290.913C3.74245 290.386 2.67312 289.43 1.95915 288.046C1.21905 286.581 0.954729 284.783 1.16619 282.654L10.41 201.024C10.7084 198.328 11.432 196.258 12.5807 194.813C13.7845 193.26 15.3613 192.171 17.3109 191.544C19.1793 190.943 21.0145 190.935 22.8164 191.521C24.6734 191.999 26.5087 193.247 28.3224 195.263L83.539 256.162C85.0335 257.743 85.9071 259.344 86.1598 260.966C86.4125 262.588 86.1139 264.029 85.264 265.288C84.3879 266.466 83.0157 267.356 81.1473 267.957C78.8727 268.688 76.9157 268.735 75.2763 268.097C73.692 267.351 72.0467 265.998 70.3403 264.037L56.5023 248.185L64.454 250.333L13.0319 266.871L18.2404 260.49L16.3593 281.398C16.0609 284.093 15.5128 286.152 14.7152 287.574C13.9175 288.996 12.4626 290.046 10.3505 290.725ZM22.828 209.534L18.8184 255.598L14.3962 252.718L55.0952 239.628L53.3029 244.508L23.0717 209.456L22.828 209.534ZM107.972 259.33C105.454 260.139 103.282 260.076 101.457 259.139C99.6869 258.095 98.397 256.314 97.5871 253.795L74.5048 182.024C73.6688 179.424 73.6786 177.225 74.5342 175.426C75.4711 173.601 77.1986 172.283 79.717 171.473C82.2353 170.663 84.3664 170.74 86.1103 171.703C87.9354 172.64 89.266 174.408 90.102 177.008L113.184 248.779C113.994 251.297 113.984 253.497 113.155 255.377C112.299 257.176 110.572 258.494 107.972 259.33ZM144.046 219.223C142.503 219.719 141.127 219.624 139.92 218.936C138.768 218.142 137.918 216.891 137.369 215.185C136.559 212.667 136.086 210.22 135.949 207.844C135.868 205.36 136.152 202.759 136.801 200.04C137.451 197.321 138.508 194.337 139.972 191.087C141.051 188.589 141.843 186.452 142.348 184.676C142.907 182.793 143.168 181.096 143.13 179.584C143.173 178.046 142.96 176.546 142.49 175.084C141.628 172.403 139.973 170.605 137.527 169.688C135.081 168.772 132.071 168.888 128.497 170.038C125.247 171.083 122.426 172.483 120.033 174.239C117.694 175.887 115.433 177.914 113.249 180.32C111.801 181.951 110.333 182.961 108.845 183.35C107.411 183.631 106.104 183.469 104.923 182.863C103.742 182.257 102.821 181.343 102.159 180.122C101.498 178.9 101.27 177.494 101.475 175.904C101.681 174.314 102.454 172.676 103.794 170.991C106.42 167.726 109.702 164.833 113.642 162.311C117.555 159.708 121.421 157.792 125.239 156.564C130.357 154.918 135.099 154.334 139.466 154.812C143.914 155.264 147.677 156.653 150.756 158.98C153.916 161.28 156.149 164.461 157.456 168.523C158.266 171.041 158.671 173.555 158.671 176.065C158.645 178.493 158.186 181.106 157.293 183.903C156.373 186.619 154.91 189.734 152.903 193.248C151.116 196.333 149.751 199.057 148.809 201.422C147.948 203.761 147.426 205.901 147.243 207.842C147.142 209.757 147.283 211.728 147.666 213.756C147.951 214.92 147.764 216.011 147.105 217.029C146.528 218.021 145.508 218.753 144.046 219.223ZM151.993 244.769C149.231 245.657 146.723 245.523 144.468 244.365C142.295 243.182 140.777 241.25 139.915 238.569C139.079 235.969 139.212 233.596 140.314 231.449C141.471 229.194 143.431 227.623 146.193 226.734C149.036 225.82 151.504 225.968 153.596 227.177C155.743 228.279 157.235 230.13 158.071 232.73C158.933 235.411 158.826 237.865 157.75 240.094C156.755 242.296 154.836 243.854 151.993 244.769Z" fill="#EFEFEF" fill-opacity="0.35"/>
<path d="M206.503 71.2164C204.722 70.2042 203.508 68.9738 202.859 67.5251C202.284 66.1187 202.265 64.6845 202.802 63.2227C203.381 61.6867 204.526 60.2765 206.238 58.9921L272.623 10.5988C274.811 8.99583 276.825 8.12882 278.666 7.99779C280.624 7.83476 282.493 8.25935 284.274 9.27157C285.98 10.2416 287.226 11.5884 288.013 13.3119C288.917 15.0034 289.239 17.199 288.98 19.8985L281.459 101.758C281.305 103.928 280.716 105.655 279.692 106.938C278.668 108.221 277.405 108.975 275.902 109.2C274.442 109.352 272.859 108.942 271.152 107.972C269.075 106.791 267.718 105.381 267.079 103.742C266.557 102.071 266.441 99.9439 266.732 97.3607L269.052 76.4464L272.846 83.7571L225.889 57.06L234.112 56.5816L217.438 69.335C215.25 70.938 213.363 71.9265 211.776 72.3004C210.189 72.6743 208.431 72.313 206.503 71.2164ZM274.751 25.5022L238.106 53.6993L237.238 48.4937L274.403 69.6237L269.597 71.6028L274.974 25.6287L274.751 25.5022ZM295.648 121.899C293.349 120.592 291.927 118.949 291.383 116.971C290.955 114.961 291.395 112.806 292.702 110.506L329.964 44.9665C331.314 42.5927 332.941 41.1126 334.845 40.5263C336.823 39.9822 338.962 40.3639 341.261 41.6713C343.561 42.9788 344.946 44.6004 345.416 46.5363C345.96 48.5144 345.557 50.6904 344.207 53.0642L306.945 118.604C305.638 120.904 304.011 122.384 302.065 123.044C300.161 123.63 298.022 123.249 295.648 121.899ZM349.589 121.351C348.179 120.55 347.32 119.472 347.01 118.118C346.816 116.732 347.162 115.26 348.048 113.702C349.355 111.403 350.838 109.399 352.496 107.691C354.271 105.952 356.379 104.402 358.821 103.042C361.263 101.681 364.176 100.442 367.561 99.3235C370.131 98.4289 372.24 97.5669 373.89 96.7378C375.655 95.8766 377.082 94.9209 378.17 93.8707C379.332 92.8626 380.293 91.691 381.052 90.3557C382.444 87.9077 382.65 85.4728 381.671 83.0512C380.692 80.6295 378.57 78.4908 375.306 76.635C372.339 74.948 369.4 73.8166 366.488 73.2408C363.692 72.633 360.67 72.3379 357.42 72.3556C355.24 72.3921 353.503 71.9937 352.21 71.1604C351.033 70.295 350.269 69.2224 349.917 67.9424C349.565 66.6625 349.615 65.3658 350.067 64.0524C350.519 62.7389 351.401 61.6204 352.711 60.6967C354.022 59.773 355.751 59.2347 357.899 59.0818C362.08 58.8081 366.431 59.2696 370.953 60.4664C375.517 61.589 379.543 63.1414 383.029 65.1236C387.703 67.7807 391.34 70.8793 393.941 74.4194C396.616 78.0016 398.137 81.7134 398.506 85.5547C398.948 89.4382 398.115 93.2345 396.006 96.9436C394.699 99.2432 393.121 101.242 391.272 102.939C389.466 104.562 387.23 105.991 384.566 107.225C381.943 108.384 378.659 109.412 374.713 110.31C371.232 111.08 368.302 111.917 365.923 112.822C363.618 113.769 361.688 114.832 360.135 116.01C358.656 117.23 357.299 118.667 356.064 120.321C355.399 121.318 354.469 121.918 353.274 122.121C352.152 122.367 350.924 122.111 349.589 121.351ZM336.144 144.481C333.622 143.047 332.025 141.108 331.353 138.665C330.755 136.263 331.152 133.839 332.543 131.391C333.893 129.017 335.731 127.51 338.059 126.87C340.502 126.198 342.985 126.579 345.507 128.013C348.104 129.489 349.664 131.406 350.187 133.766C350.827 136.093 350.473 138.443 349.123 140.817C347.731 143.265 345.851 144.846 343.481 145.561C341.186 146.317 338.741 145.957 336.144 144.481Z" fill="#EFEFEF" fill-opacity="0.35"/>
<path d="M575.364 152.519C575.364 152.519 541.864 60.0187 551.864 60.0189C559.591 60.0191 572.693 92.8614 578.248 107.789C578.657 108.887 580.431 108.518 580.361 107.349C579.088 86.0976 576.467 28.0189 585.864 28.0189C595.495 28.0189 602.671 75.7172 604.749 91.2169C604.894 92.2943 606.457 92.414 606.778 91.3755C611.715 75.4186 628.313 23.8695 636.364 25.0189C646.864 26.5181 631.864 96.0189 631.864 96.0189M647.364 227.518H625.253C625.002 227.518 624.763 227.61 624.582 227.783C623.709 228.618 621.033 231.271 619.864 233.518C618.475 236.187 618.043 240.531 617.915 242.496C617.878 243.057 618.327 243.518 618.889 243.518H720.364C721.325 243.518 721.732 242.295 720.964 241.718L719.663 240.742C719.47 240.598 719.233 240.528 718.992 240.537C718.1 240.572 715.806 240.595 714.364 240.018C713.188 239.548 711.795 238.365 711.181 237.812C710.976 237.627 710.707 237.526 710.43 237.527C709.249 237.533 705.95 237.418 704.364 236.018C702.658 234.513 702.386 230.48 702.356 228.561C702.348 227.992 701.889 227.518 701.321 227.518H673.364M673.364 227.518L680.364 201.018L683.114 187.518L685.864 174.018H665.095C664.659 174.018 664.274 174.3 664.142 174.715L647.364 227.518M647.364 227.518H673.364M685.864 174.018L669.364 227.018" stroke="black" stroke-linecap="round"/>
<path d="M406 233.518H570.5" stroke="black" stroke-linecap="round"/>
<path d="M703 233.518H867.5" stroke="black" stroke-linecap="round"/>
<path d="M657.5 233.518H665.5" stroke="black" stroke-linecap="round"/>
<path d="M617 233.52H619" stroke="black" stroke-linecap="round"/>
<path d="M595.5 153.018H563.117C562.521 153.018 562.058 153.536 562.123 154.128L571.901 242.128C571.957 242.634 572.385 243.018 572.895 243.018H614.575C615.097 243.018 615.531 242.616 615.572 242.096L619.5 192.018" stroke="black" stroke-linecap="round"/>
<path d="M658 191.018H613.195C612.777 191.018 612.403 190.758 612.258 190.366L580.5 105.018L581.384 98.3854C581.451 97.8886 581.874 97.5176 582.376 97.5176H727.791C728.216 97.5176 728.594 97.786 728.734 98.187L759.292 185.424C759.419 185.787 759.327 186.19 759.056 186.462L754.5 191.018H682.5M754.5 191.018L723.24 106.169C723.096 105.778 722.723 105.517 722.305 105.515L580.5 105.018" stroke="black" stroke-linecap="round"/>
<path d="M1172.87 203.186C1172.43 203.56 1171.99 203.763 1171.54 203.796C1171.12 203.814 1170.73 203.682 1170.4 203.4C1170.05 203.1 1169.78 202.662 1169.61 202.087L1163.16 179.9C1162.94 179.168 1162.91 178.553 1163.05 178.053C1163.19 177.52 1163.48 177.066 1163.92 176.692C1164.34 176.333 1164.82 176.132 1165.35 176.089C1165.88 176.012 1166.49 176.137 1167.18 176.463L1188.11 186.281C1188.67 186.529 1189.07 186.85 1189.31 187.244C1189.56 187.637 1189.63 188.043 1189.55 188.462C1189.45 188.863 1189.19 189.243 1188.77 189.601C1188.26 190.038 1187.76 190.262 1187.26 190.274C1186.77 190.252 1186.2 190.08 1185.54 189.756L1180.23 187.142L1182.53 186.838L1170.98 196.704L1171.64 194.484L1173.42 200.113C1173.63 200.845 1173.71 201.439 1173.66 201.894C1173.61 202.35 1173.34 202.78 1172.87 203.186ZM1167.3 180.763L1171.26 193.151L1169.8 192.883L1178.94 185.074L1179 186.535L1167.36 180.716L1167.3 180.763ZM1194.8 184.454C1194.23 184.937 1193.66 185.156 1193.09 185.111C1192.51 185.032 1191.99 184.71 1191.5 184.144L1177.73 168.021C1177.23 167.437 1177 166.865 1177.02 166.305C1177.07 165.73 1177.37 165.201 1177.94 164.718C1178.51 164.234 1179.07 164.023 1179.62 164.084C1180.2 164.129 1180.74 164.444 1181.24 165.028L1195.01 181.151C1195.49 181.717 1195.73 182.289 1195.71 182.866C1195.69 183.426 1195.38 183.955 1194.8 184.454ZM1199.81 170.135C1199.46 170.431 1199.1 170.555 1198.71 170.508C1198.32 170.426 1197.97 170.194 1197.64 169.811C1197.16 169.245 1196.77 168.661 1196.48 168.06C1196.19 167.424 1195.98 166.718 1195.85 165.942C1195.73 165.166 1195.68 164.277 1195.7 163.275C1195.71 162.51 1195.69 161.869 1195.63 161.354C1195.57 160.804 1195.45 160.335 1195.28 159.947C1195.12 159.544 1194.9 159.177 1194.62 158.849C1194.11 158.247 1193.48 157.959 1192.75 157.987C1192.02 158.014 1191.25 158.371 1190.44 159.056C1189.71 159.68 1189.13 160.349 1188.7 161.064C1188.27 161.746 1187.91 162.517 1187.6 163.378C1187.4 163.958 1187.13 164.379 1186.79 164.642C1186.45 164.87 1186.09 164.97 1185.72 164.94C1185.34 164.911 1185.01 164.774 1184.7 164.529C1184.4 164.283 1184.19 163.943 1184.07 163.508C1183.95 163.074 1183.97 162.565 1184.14 161.982C1184.46 160.85 1185 159.743 1185.75 158.662C1186.48 157.562 1187.28 156.646 1188.14 155.913C1189.29 154.931 1190.45 154.265 1191.64 153.916C1192.84 153.551 1193.97 153.503 1195.02 153.773C1196.09 154.028 1197.02 154.611 1197.79 155.524C1198.28 156.089 1198.66 156.698 1198.93 157.349C1199.18 157.982 1199.35 158.71 1199.42 159.533C1199.48 160.337 1199.43 161.304 1199.29 162.434C1199.16 163.428 1199.11 164.283 1199.12 164.999C1199.15 165.699 1199.24 166.311 1199.41 166.835C1199.59 167.343 1199.84 167.839 1200.16 168.324C1200.36 168.595 1200.43 168.898 1200.37 169.234C1200.33 169.554 1200.14 169.854 1199.81 170.135ZM1204.64 175.903C1204.02 176.433 1203.36 176.67 1202.65 176.614C1201.95 176.542 1201.35 176.206 1200.84 175.603C1200.34 175.019 1200.11 174.389 1200.17 173.712C1200.22 173.002 1200.56 172.381 1201.18 171.851C1201.82 171.306 1202.48 171.077 1203.15 171.164C1203.83 171.217 1204.42 171.536 1204.92 172.12C1205.43 172.722 1205.67 173.37 1205.63 174.065C1205.61 174.745 1205.28 175.357 1204.64 175.903Z" fill="white"/>
<path d="M255.258 201.715C254.704 201.556 254.29 201.3 254.017 200.947C253.767 200.6 253.667 200.21 253.717 199.775C253.773 199.316 253.993 198.855 254.376 198.391L269.319 180.768C269.811 180.185 270.305 179.815 270.799 179.657C271.324 179.483 271.863 179.476 272.416 179.635C272.947 179.787 273.377 180.072 273.706 180.491C274.065 180.894 274.298 181.473 274.406 182.228L277.768 205.102C277.87 205.706 277.823 206.216 277.628 206.635C277.433 207.053 277.138 207.343 276.742 207.504C276.353 207.642 275.893 207.635 275.362 207.483C274.717 207.298 274.252 207.002 273.969 206.596C273.716 206.174 273.543 205.6 273.452 204.875L272.702 199.004L274.223 200.752L259.62 196.562L261.836 195.887L258.122 200.477C257.63 201.06 257.18 201.455 256.771 201.662C256.362 201.869 255.857 201.887 255.258 201.715ZM270.888 184.701L262.737 194.835L262.155 193.469L273.713 196.785L272.53 197.644L270.957 184.721L270.888 184.701ZM282.98 209.669C282.265 209.463 281.768 209.108 281.488 208.604C281.238 208.083 281.216 207.464 281.421 206.749L287.268 186.368C287.48 185.629 287.827 185.117 288.309 184.831C288.813 184.551 289.423 184.514 290.138 184.719C290.854 184.924 291.339 185.276 291.596 185.774C291.876 186.279 291.91 186.9 291.698 187.638L285.85 208.02C285.645 208.735 285.298 209.247 284.81 209.557C284.328 209.843 283.718 209.88 282.98 209.669ZM297.689 205.949C297.25 205.823 296.944 205.585 296.77 205.235C296.625 204.869 296.622 204.444 296.761 203.96C296.966 203.245 297.239 202.599 297.579 202.022C297.949 201.429 298.423 200.866 299 200.333C299.578 199.799 300.292 199.267 301.143 198.738C301.787 198.323 302.306 197.948 302.702 197.612C303.128 197.26 303.455 196.904 303.682 196.545C303.933 196.192 304.118 195.809 304.238 195.393C304.456 194.632 304.351 193.953 303.923 193.356C303.495 192.758 302.774 192.314 301.759 192.023C300.836 191.758 299.958 191.644 299.124 191.679C298.319 191.698 297.473 191.817 296.586 192.037C295.993 192.191 295.492 192.197 295.083 192.055C294.704 191.897 294.424 191.654 294.243 191.327C294.062 191.001 293.99 190.643 294.027 190.254C294.064 189.865 294.23 189.501 294.528 189.162C294.825 188.823 295.262 188.561 295.839 188.377C296.963 188.026 298.183 187.864 299.499 187.892C300.821 187.896 302.024 188.054 303.108 188.365C304.561 188.782 305.761 189.388 306.706 190.184C307.674 190.986 308.336 191.9 308.691 192.926C309.069 193.958 309.092 195.051 308.761 196.204C308.556 196.919 308.257 197.57 307.864 198.157C307.478 198.72 306.961 199.258 306.315 199.772C305.674 200.262 304.845 200.761 303.826 201.268C302.925 201.708 302.18 202.131 301.589 202.536C301.022 202.947 300.565 203.366 300.218 203.79C299.894 204.222 299.619 204.705 299.391 205.238C299.275 205.555 299.06 205.78 298.747 205.915C298.457 206.057 298.104 206.068 297.689 205.949ZM295.544 213.161C294.76 212.936 294.195 212.512 293.85 211.888C293.527 211.271 293.475 210.582 293.694 209.821C293.906 209.083 294.308 208.549 294.902 208.22C295.526 207.875 296.229 207.815 297.014 208.04C297.821 208.271 298.375 208.692 298.674 209.302C299.003 209.896 299.062 210.562 298.85 211.3C298.631 212.062 298.222 212.618 297.622 212.97C297.044 213.329 296.352 213.393 295.544 213.161Z" fill="#EFEFEF"/>
<path d="M126.952 58.6469C127.501 58.4725 127.987 58.4566 128.41 58.5992C128.811 58.7491 129.11 59.0189 129.31 59.4089C129.516 59.8217 129.589 60.3274 129.527 60.9262L126.846 83.8753C126.76 84.6331 126.554 85.2147 126.23 85.6199C125.89 86.0554 125.445 86.3603 124.896 86.5347C124.37 86.7018 123.854 86.7021 123.348 86.5356C122.826 86.3992 122.311 86.0466 121.803 85.4777L106.334 68.295C105.915 67.8489 105.671 67.3976 105.602 66.9412C105.532 66.4848 105.618 66.0799 105.858 65.7266C106.105 65.3961 106.492 65.1472 107.018 64.9801C107.659 64.7766 108.209 64.7654 108.67 64.9465C109.114 65.1577 109.576 65.54 110.054 66.0933L113.93 70.5655L111.696 69.9533L126.175 65.3532L124.703 67.1427L125.253 61.2643C125.34 60.5065 125.496 59.9281 125.722 59.529C125.947 59.1299 126.358 58.8358 126.952 58.6469ZM123.362 81.4693L124.536 68.518L125.777 69.3325L114.317 72.9733L114.826 71.6029L123.294 81.4911L123.362 81.4693ZM99.4654 67.3798C100.174 67.1546 100.785 67.1745 101.297 67.4398C101.794 67.7352 102.155 68.2376 102.381 68.9467L108.801 89.1553C109.034 89.8872 109.029 90.5056 108.786 91.0108C108.521 91.5231 108.034 91.8921 107.325 92.1174C106.616 92.3426 106.016 92.3189 105.527 92.0463C105.014 91.781 104.642 91.2825 104.409 90.5505L97.989 70.3419C97.7638 69.6328 97.7687 69.0143 98.0039 68.4864C98.2463 67.9812 98.7335 67.6124 99.4654 67.3798ZM89.2798 78.6238C89.7144 78.4857 90.1011 78.5139 90.4399 78.7085C90.7631 78.9332 91.001 79.2858 91.1536 79.7661C91.3789 80.4752 91.5096 81.1639 91.5457 81.8324C91.5662 82.531 91.4837 83.2623 91.2983 84.0263C91.113 84.7903 90.8127 85.6285 90.3975 86.5411C90.0916 87.2427 89.8668 87.8429 89.7231 88.3418C89.5639 88.8709 89.4888 89.348 89.498 89.7732C89.4843 90.2056 89.5428 90.6277 89.6736 91.0395C89.9135 91.7943 90.3769 92.3018 91.0639 92.562C91.7509 92.8221 92.5977 92.7923 93.6041 92.4725C94.519 92.1818 95.3139 91.7909 95.9888 91.2994C96.6481 90.8382 97.2861 90.2702 97.9029 89.5958C98.3116 89.1386 98.7255 88.8561 99.1445 88.7482C99.5478 88.6704 99.9153 88.7173 100.247 88.889C100.578 89.0607 100.836 89.3186 101.021 89.6627C101.206 90.0069 101.269 90.4024 101.209 90.8494C101.15 91.2964 100.931 91.7563 100.552 92.2291C99.811 93.1446 98.8849 93.9552 97.7744 94.6606C96.6711 95.3888 95.5819 95.9237 94.5069 96.2653C93.0659 96.7231 91.7315 96.8826 90.5039 96.7439C89.2534 96.6123 88.1963 96.2179 87.3327 95.5605C86.4462 94.9104 85.8213 94.0135 85.458 92.8699C85.2327 92.1608 85.1212 91.4533 85.1236 90.7475C85.1333 90.0645 85.2651 89.3301 85.5191 88.5443C85.7803 87.7814 86.195 86.9067 86.763 85.9204C87.2686 85.0546 87.6551 84.2897 87.9226 83.6255C88.1671 82.9686 88.3161 82.3674 88.3693 81.8217C88.3997 81.2832 88.362 80.7286 88.2562 80.1578C88.1773 79.8303 88.231 79.5237 88.4172 79.2379C88.5805 78.9594 88.868 78.7546 89.2798 78.6238ZM87.0702 71.4313C87.8478 71.1842 88.5532 71.2245 89.1861 71.5523C89.7962 71.8873 90.2211 72.4322 90.461 73.187C90.6935 73.9189 90.6537 74.5862 90.3416 75.189C90.0139 75.822 89.4611 76.2621 88.6834 76.5092C87.8829 76.7635 87.189 76.7196 86.6018 76.3773C85.999 76.0652 85.5813 75.543 85.3488 74.8111C85.1089 74.0563 85.1415 73.366 85.4463 72.7403C85.7283 72.1219 86.2696 71.6856 87.0702 71.4313Z" fill="#EFEFEF"/>
<path d="M1008.3 109.443C1007.77 109.211 1007.4 108.902 1007.17 108.516C1006.97 108.139 1006.92 107.738 1007.03 107.314C1007.15 106.867 1007.43 106.44 1007.87 106.031L1025.04 90.5677C1025.6 90.0558 1026.14 89.7549 1026.65 89.6648C1027.2 89.5624 1027.73 89.627 1028.26 89.8585C1028.76 90.0804 1029.15 90.421 1029.42 90.8803C1029.72 91.3273 1029.88 91.9322 1029.88 92.6949L1030.15 115.813C1030.17 116.425 1030.06 116.925 1029.81 117.313C1029.56 117.702 1029.23 117.949 1028.82 118.056C1028.41 118.141 1027.96 118.072 1027.45 117.85C1026.84 117.58 1026.42 117.225 1026.19 116.785C1025.99 116.333 1025.9 115.741 1025.91 115.01L1025.95 109.092L1027.22 111.027L1013.31 104.92L1015.6 104.548L1011.3 108.599C1010.74 109.111 1010.24 109.443 1009.81 109.593C1009.37 109.744 1008.87 109.694 1008.3 109.443ZM1026.07 94.6752L1016.63 103.626L1016.24 102.195L1027.25 107.028L1025.96 107.721L1026.13 94.7042L1026.07 94.6752ZM1034.71 121.036C1034.03 120.737 1033.58 120.319 1033.37 119.781C1033.19 119.231 1033.25 118.615 1033.55 117.934L1042.08 98.519C1042.39 97.8158 1042.8 97.3545 1043.31 97.1353C1043.85 96.9257 1044.46 96.9705 1045.14 97.2695C1045.82 97.5686 1046.26 97.9821 1046.44 98.51C1046.65 99.0476 1046.6 99.668 1046.3 100.371L1037.77 119.786C1037.47 120.468 1037.06 120.929 1036.54 121.17C1036.02 121.389 1035.41 121.345 1034.71 121.036ZM1049.78 119.318C1049.36 119.135 1049.09 118.858 1048.97 118.489C1048.87 118.106 1048.93 117.685 1049.13 117.223C1049.43 116.542 1049.78 115.938 1050.2 115.412C1050.64 114.874 1051.19 114.38 1051.83 113.928C1052.48 113.477 1053.26 113.046 1054.17 112.635C1054.86 112.31 1055.43 112.007 1055.87 111.728C1056.34 111.436 1056.71 111.127 1056.98 110.801C1057.28 110.486 1057.51 110.13 1057.68 109.735C1058 109.009 1057.99 108.322 1057.65 107.673C1057.3 107.024 1056.65 106.487 1055.68 106.063C1054.8 105.677 1053.95 105.446 1053.11 105.369C1052.31 105.28 1051.46 105.285 1050.55 105.384C1049.94 105.458 1049.45 105.397 1049.06 105.201C1048.71 104.993 1048.46 104.715 1048.32 104.367C1048.19 104.02 1048.17 103.655 1048.25 103.275C1048.34 102.894 1048.56 102.556 1048.9 102.259C1049.24 101.963 1049.7 101.762 1050.3 101.657C1051.46 101.459 1052.69 101.462 1053.99 101.666C1055.3 101.848 1056.47 102.165 1057.51 102.618C1058.89 103.226 1060 103.988 1060.83 104.902C1061.68 105.827 1062.21 106.821 1062.43 107.885C1062.66 108.959 1062.54 110.045 1062.06 111.144C1061.76 111.825 1061.38 112.43 1060.91 112.958C1060.45 113.465 1059.87 113.929 1059.16 114.352C1058.46 114.752 1057.57 115.135 1056.49 115.501C1055.54 115.817 1054.74 116.136 1054.1 116.458C1053.49 116.79 1052.98 117.143 1052.58 117.518C1052.2 117.902 1051.86 118.344 1051.56 118.842C1051.41 119.14 1051.16 119.335 1050.83 119.427C1050.53 119.528 1050.18 119.492 1049.78 119.318ZM1046.69 126.179C1045.94 125.851 1045.44 125.355 1045.18 124.691C1044.95 124.036 1044.99 123.346 1045.3 122.621C1045.61 121.918 1046.08 121.443 1046.72 121.196C1047.38 120.937 1048.09 120.972 1048.83 121.3C1049.6 121.638 1050.09 122.129 1050.31 122.774C1050.56 123.406 1050.52 124.074 1050.22 124.777C1049.9 125.502 1049.42 125.999 1048.78 126.268C1048.16 126.546 1047.46 126.516 1046.69 126.179Z" fill="#EFEFEF"/>
<path d="M446.321 169.007C445.807 169.423 445.296 169.605 444.785 169.552C444.262 169.482 443.792 169.191 443.375 168.677L431.741 154.339C431.311 153.809 431.121 153.304 431.171 152.824C431.224 152.314 431.508 151.85 432.021 151.434C432.535 151.017 433.038 150.842 433.532 150.909C434.029 150.945 434.492 151.228 434.922 151.759L445.689 165.028L452.895 159.181C453.342 158.818 453.776 158.658 454.196 158.702C454.633 158.732 455.026 158.963 455.375 159.394C455.725 159.824 455.876 160.265 455.829 160.715C455.786 161.135 455.54 161.527 455.093 161.889L446.321 169.007ZM460.274 157.685C459.761 158.102 459.249 158.284 458.739 158.231C458.215 158.161 457.745 157.869 457.328 157.356L445.695 143.018C445.265 142.488 445.075 141.982 445.125 141.502C445.178 140.992 445.461 140.529 445.975 140.112C446.488 139.695 446.992 139.52 447.485 139.587C447.982 139.623 448.445 139.907 448.875 140.437L459.642 153.706L466.848 147.859C467.296 147.496 467.729 147.337 468.15 147.381C468.586 147.411 468.979 147.641 469.329 148.072C469.678 148.503 469.83 148.943 469.783 149.393C469.739 149.813 469.493 150.205 469.046 150.568L460.274 157.685ZM474.265 146.663C473.801 147.04 473.337 147.196 472.874 147.133C472.41 147.069 471.99 146.805 471.614 146.342L459.496 131.407C459.106 130.927 458.943 130.455 459.007 129.991C459.057 129.511 459.314 129.083 459.777 128.707C460.192 128.371 460.582 128.191 460.948 128.169C461.318 128.116 461.756 128.2 462.264 128.42L477.616 134.796L476.821 135.441L473.745 119.105C473.634 118.562 473.635 118.122 473.746 117.785C473.843 117.431 474.099 117.086 474.513 116.75C474.977 116.374 475.441 116.218 475.904 116.281C476.354 116.328 476.774 116.591 477.164 117.072L489.282 132.006C489.658 132.47 489.829 132.935 489.796 133.402C489.779 133.855 489.53 134.277 489.05 134.667C488.586 135.043 488.122 135.199 487.659 135.136C487.195 135.073 486.775 134.809 486.399 134.345L477.064 122.84L477.611 122.396L480.114 136.148C480.177 136.564 480.171 136.912 480.097 137.192C480.022 137.473 479.827 137.741 479.512 137.996C479.198 138.251 478.887 138.393 478.581 138.422C478.261 138.434 477.919 138.368 477.555 138.224L464.545 132.957L465.141 132.473L474.496 144.003C474.873 144.467 475.044 144.932 475.011 145.399C474.994 145.852 474.745 146.273 474.265 146.663ZM493.701 122.157C493.386 122.412 493.057 122.515 492.713 122.464C492.373 122.383 492.061 122.168 491.779 121.82C491.362 121.307 491.031 120.779 490.784 120.238C490.54 119.667 490.371 119.035 490.276 118.342C490.181 117.65 490.157 116.859 490.204 115.969C490.23 115.289 490.221 114.719 490.178 114.26C490.138 113.77 490.045 113.351 489.899 113.002C489.77 112.64 489.584 112.31 489.342 112.012C488.899 111.465 488.351 111.196 487.698 111.204C487.045 111.211 486.354 111.511 485.625 112.102C484.962 112.64 484.431 113.222 484.033 113.848C483.637 114.443 483.293 115.12 483.002 115.879C482.812 116.39 482.562 116.758 482.25 116.983C481.942 117.179 481.622 117.259 481.292 117.225C480.962 117.191 480.665 117.061 480.4 116.836C480.135 116.612 479.955 116.305 479.859 115.916C479.763 115.526 479.795 115.075 479.954 114.56C480.271 113.562 480.774 112.591 481.464 111.646C482.14 110.686 482.867 109.889 483.646 109.257C484.69 108.411 485.742 107.845 486.803 107.561C487.88 107.264 488.883 107.247 489.811 107.511C490.756 107.761 491.564 108.3 492.236 109.128C492.653 109.642 492.975 110.191 493.202 110.776C493.416 111.344 493.545 111.994 493.59 112.727C493.622 113.443 493.563 114.302 493.413 115.302C493.276 116.183 493.205 116.941 493.199 117.578C493.21 118.201 493.282 118.746 493.415 119.215C493.565 119.671 493.776 120.117 494.049 120.555C494.221 120.801 494.276 121.072 494.215 121.369C494.17 121.652 493.999 121.915 493.701 122.157ZM497.865 127.391C497.302 127.848 496.705 128.043 496.075 127.978C495.461 127.899 494.932 127.586 494.489 127.039C494.059 126.509 493.875 125.944 493.937 125.344C494.003 124.714 494.318 124.17 494.881 123.713C495.461 123.243 496.049 123.054 496.646 123.146C497.246 123.209 497.761 123.505 498.191 124.035C498.635 124.582 498.832 125.163 498.783 125.78C498.751 126.383 498.445 126.92 497.865 127.391Z" fill="#EFEFEF"/>
</g>
</g>
<defs>
<linearGradient id="paint0_linear_225_84" x1="637.5" y1="0" x2="637.5" y2="286" gradientUnits="userSpaceOnUse">
<stop stop-color="#6E47E3"/>
<stop offset="1" stop-color="#F7F4EF"/>
</linearGradient>
<linearGradient id="paint1_linear_225_84" x1="637.5" y1="0" x2="637.5" y2="286" gradientUnits="userSpaceOnUse">
<stop stop-color="#6E47E3"/>
<stop offset="1" stop-color="#F7F4EF"/>
</linearGradient>
<clipPath id="clip0_225_84">
<rect width="1275" height="286" fill="white"/>
</clipPath>
</defs>
</svg>
