<svg width="189" height="49" viewBox="0 0 189 49" fill="none" xmlns="http://www.w3.org/2000/svg">
<path d="M3.37518 18.2979H0.000177577L6.14506 0.843306H10.0485L16.2019 18.2979H12.8269L8.16495 4.42285H8.02859L3.37518 18.2979ZM3.48597 11.4541H12.6905V13.9939H3.48597V11.4541ZM21.6628 0.843306V18.2979H18.5009V0.843306H21.6628Z" fill="#6E47E3"/>
<path d="M37.5343 5.20694V7.59331H29.7956V5.20694H37.5343ZM31.7303 18.2979V3.97115C31.7303 3.09046 31.9121 2.35751 32.2757 1.77228C32.6451 1.18706 33.1394 0.749556 33.7587 0.459783C34.378 0.17001 35.0655 0.0251231 35.8212 0.0251231C36.3553 0.0251231 36.8297 0.0677371 37.2445 0.152965C37.6593 0.238192 37.9661 0.314897 38.165 0.383079L37.5513 2.76944C37.4206 2.72967 37.2559 2.6899 37.057 2.65012C36.8581 2.60467 36.6365 2.58194 36.3922 2.58194C35.8184 2.58194 35.4121 2.72115 35.1735 2.99956C34.9405 3.27228 34.824 3.66433 34.824 4.17569V18.2979H31.7303ZM45.1685 18.5535C43.8901 18.5535 42.7821 18.2723 41.8446 17.7098C40.9071 17.1473 40.1799 16.3604 39.6628 15.349C39.1515 14.3376 38.8958 13.1558 38.8958 11.8035C38.8958 10.4513 39.1515 9.2666 39.6628 8.24956C40.1799 7.23251 40.9071 6.44274 41.8446 5.88024C42.7821 5.31774 43.8901 5.03649 45.1685 5.03649C46.4469 5.03649 47.5549 5.31774 48.4924 5.88024C49.4299 6.44274 50.1543 7.23251 50.6657 8.24956C51.1827 9.2666 51.4412 10.4513 51.4412 11.8035C51.4412 13.1558 51.1827 14.3376 50.6657 15.349C50.1543 16.3604 49.4299 17.1473 48.4924 17.7098C47.5549 18.2723 46.4469 18.5535 45.1685 18.5535ZM45.1855 16.0819C45.8787 16.0819 46.4583 15.8916 46.9242 15.5109C47.3901 15.1246 47.7367 14.6075 47.964 13.9598C48.1969 13.3121 48.3134 12.5905 48.3134 11.795C48.3134 10.9939 48.1969 10.2694 47.964 9.62172C47.7367 8.96831 47.3901 8.44842 46.9242 8.06206C46.4583 7.67569 45.8787 7.48251 45.1855 7.48251C44.4753 7.48251 43.8844 7.67569 43.4128 8.06206C42.9469 8.44842 42.5975 8.96831 42.3645 9.62172C42.1373 10.2694 42.0236 10.9939 42.0236 11.795C42.0236 12.5905 42.1373 13.3121 42.3645 13.9598C42.5975 14.6075 42.9469 15.1246 43.4128 15.5109C43.8844 15.8916 44.4753 16.0819 45.1855 16.0819ZM54.0598 18.2979V5.20694H57.0513V7.38876H57.1877C57.4263 6.63308 57.8354 6.05069 58.415 5.6416C59.0002 5.22683 59.6678 5.01944 60.4178 5.01944C60.5882 5.01944 60.7786 5.02796 60.9888 5.04501C61.2047 5.05637 61.3837 5.07626 61.5257 5.10467V7.94274C61.3951 7.89728 61.1877 7.85751 60.9036 7.82342C60.6252 7.78365 60.3553 7.76376 60.0939 7.76376C59.5314 7.76376 59.0257 7.88592 58.5769 8.13024C58.1337 8.36887 57.7843 8.70126 57.5286 9.1274C57.2729 9.55353 57.1451 10.045 57.1451 10.6018V18.2979H54.0598ZM78.2644 23.2069V16.2354H78.1365C77.9775 16.5535 77.7473 16.8916 77.4462 17.2496C77.1451 17.6018 76.7473 17.903 76.253 18.153C75.7587 18.403 75.1365 18.528 74.3865 18.528C73.3581 18.528 72.4377 18.2638 71.6252 17.7354C70.8127 17.2069 70.1706 16.4399 69.699 15.4342C69.2275 14.4285 68.9917 13.2069 68.9917 11.7694C68.9917 10.3149 69.2303 9.08762 69.7076 8.08762C70.1905 7.08194 70.8411 6.32342 71.6593 5.81206C72.4775 5.29501 73.3894 5.03649 74.3951 5.03649C75.1621 5.03649 75.7928 5.16717 76.2871 5.42853C76.7814 5.68421 77.1735 5.99387 77.4632 6.35751C77.753 6.71546 77.9775 7.05353 78.1365 7.37172H78.324V5.20694H81.3581V23.2069H78.2644ZM75.2473 15.9967C75.9007 15.9967 76.4576 15.8206 76.9178 15.4683C77.378 15.1104 77.7275 14.6132 77.9661 13.9768C78.2047 13.3405 78.324 12.599 78.324 11.7524C78.324 10.9058 78.2047 10.17 77.9661 9.54501C77.7331 8.92001 77.3865 8.43421 76.9263 8.08762C76.4718 7.74103 75.9121 7.56774 75.2473 7.56774C74.5598 7.56774 73.986 7.74671 73.5257 8.10467C73.0655 8.46262 72.7189 8.95694 72.486 9.58762C72.253 10.2183 72.1365 10.9399 72.1365 11.7524C72.1365 12.5706 72.253 13.3007 72.486 13.9427C72.7246 14.5791 73.074 15.0819 73.5343 15.4513C74.0002 15.8149 74.5712 15.9967 75.2473 15.9967ZM92.8723 12.7922V5.20694H95.9576V18.2979H92.9661V15.9711H92.8297C92.5343 16.7041 92.0485 17.3035 91.3723 17.7694C90.7019 18.2354 89.8752 18.4683 88.8922 18.4683C88.0343 18.4683 87.2757 18.278 86.6167 17.8973C85.9632 17.5109 85.4519 16.9513 85.0826 16.2183C84.7132 15.4797 84.5286 14.5876 84.5286 13.5422V5.20694H87.6138V13.0649C87.6138 13.8944 87.8411 14.5535 88.2956 15.0422C88.7502 15.5308 89.3468 15.7751 90.0854 15.7751C90.54 15.7751 90.9803 15.6643 91.4064 15.4427C91.8326 15.2211 92.182 14.8916 92.4547 14.4541C92.7331 14.0109 92.8723 13.4569 92.8723 12.7922ZM102.897 18.5621C102.068 18.5621 101.32 18.4143 100.656 18.1189C99.9966 17.8177 99.4739 17.3746 99.0875 16.7893C98.7069 16.2041 98.5165 15.4825 98.5165 14.6246C98.5165 13.8859 98.6529 13.2751 98.9256 12.7922C99.1983 12.3092 99.5705 11.9229 100.042 11.6331C100.514 11.3433 101.045 11.1246 101.636 10.9768C102.232 10.8234 102.849 10.7126 103.485 10.6444C104.252 10.5649 104.874 10.4939 105.352 10.4314C105.829 10.3632 106.176 10.2609 106.392 10.1246C106.613 9.98251 106.724 9.76376 106.724 9.46831V9.41717C106.724 8.77512 106.534 8.27797 106.153 7.92569C105.772 7.57342 105.224 7.39728 104.508 7.39728C103.752 7.39728 103.153 7.56206 102.71 7.8916C102.272 8.22115 101.977 8.61035 101.823 9.05922L98.9426 8.65012C99.1699 7.85467 99.5449 7.1899 100.068 6.65581C100.59 6.11603 101.23 5.71262 101.985 5.44558C102.741 5.17285 103.576 5.03649 104.491 5.03649C105.122 5.03649 105.749 5.11035 106.374 5.25808C106.999 5.40581 107.57 5.65012 108.088 5.99103C108.605 6.32626 109.019 6.78365 109.332 7.36319C109.65 7.94274 109.809 8.66717 109.809 9.53649V18.2979H106.843V16.4996H106.741C106.553 16.8632 106.289 17.2041 105.948 17.5223C105.613 17.8348 105.19 18.0876 104.678 18.2808C104.173 18.4683 103.579 18.5621 102.897 18.5621ZM103.698 16.295C104.318 16.295 104.855 16.1729 105.309 15.9285C105.764 15.6785 106.113 15.349 106.357 14.9399C106.607 14.5308 106.732 14.0848 106.732 13.6018V12.0592C106.636 12.1388 106.471 12.2126 106.238 12.2808C106.011 12.349 105.755 12.4086 105.471 12.4598C105.187 12.5109 104.906 12.5564 104.627 12.5961C104.349 12.6359 104.107 12.67 103.903 12.6984C103.443 12.7609 103.031 12.8632 102.667 13.0052C102.303 13.1473 102.017 13.3461 101.806 13.6018C101.596 13.8518 101.491 14.1757 101.491 14.5734C101.491 15.1416 101.698 15.5706 102.113 15.8604C102.528 16.1501 103.056 16.295 103.698 16.295ZM115.997 0.843306V18.2979H112.911V0.843306H115.997ZM119.169 18.2979V5.20694H122.254V18.2979H119.169ZM120.72 3.34899C120.232 3.34899 119.811 3.18706 119.459 2.86319C119.107 2.53365 118.931 2.13876 118.931 1.67853C118.931 1.21262 119.107 0.817737 119.459 0.493873C119.811 0.164328 120.232 -0.000444412 120.72 -0.000444412C121.215 -0.000444412 121.635 0.164328 121.982 0.493873C122.334 0.817737 122.51 1.21262 122.51 1.67853C122.51 2.13876 122.334 2.53365 121.982 2.86319C121.635 3.18706 121.215 3.34899 120.72 3.34899ZM131.964 5.20694V7.59331H124.438V5.20694H131.964ZM126.296 2.07058H129.382V14.3604C129.382 14.7751 129.444 15.0933 129.569 15.3149C129.7 15.5308 129.87 15.6785 130.08 15.7581C130.291 15.8376 130.524 15.8774 130.779 15.8774C130.972 15.8774 131.149 15.8632 131.308 15.8348C131.472 15.8064 131.597 15.7808 131.683 15.7581L132.203 18.17C132.038 18.2268 131.802 18.2893 131.495 18.3575C131.194 18.4257 130.825 18.4655 130.387 18.4768C129.615 18.4996 128.919 18.3831 128.299 18.1274C127.68 17.866 127.188 17.4626 126.825 16.9172C126.467 16.3717 126.291 15.6899 126.296 14.8717V2.07058ZM138.311 18.5621C137.482 18.5621 136.735 18.4143 136.07 18.1189C135.411 17.8177 134.888 17.3746 134.502 16.7893C134.121 16.2041 133.931 15.4825 133.931 14.6246C133.931 13.8859 134.067 13.2751 134.34 12.7922C134.612 12.3092 134.985 11.9229 135.456 11.6331C135.928 11.3433 136.459 11.1246 137.05 10.9768C137.646 10.8234 138.263 10.7126 138.899 10.6444C139.666 10.5649 140.289 10.4939 140.766 10.4314C141.243 10.3632 141.59 10.2609 141.806 10.1246C142.027 9.98251 142.138 9.76376 142.138 9.46831V9.41717C142.138 8.77512 141.948 8.27797 141.567 7.92569C141.186 7.57342 140.638 7.39728 139.922 7.39728C139.166 7.39728 138.567 7.56206 138.124 7.8916C137.686 8.22115 137.391 8.61035 137.237 9.05922L134.357 8.65012C134.584 7.85467 134.959 7.1899 135.482 6.65581C136.004 6.11603 136.644 5.71262 137.399 5.44558C138.155 5.17285 138.99 5.03649 139.905 5.03649C140.536 5.03649 141.164 5.11035 141.789 5.25808C142.414 5.40581 142.985 5.65012 143.502 5.99103C144.019 6.32626 144.433 6.78365 144.746 7.36319C145.064 7.94274 145.223 8.66717 145.223 9.53649V18.2979H142.257V16.4996H142.155C141.968 16.8632 141.703 17.2041 141.362 17.5223C141.027 17.8348 140.604 18.0876 140.093 18.2808C139.587 18.4683 138.993 18.5621 138.311 18.5621ZM139.112 16.295C139.732 16.295 140.269 16.1729 140.723 15.9285C141.178 15.6785 141.527 15.349 141.771 14.9399C142.021 14.5308 142.146 14.0848 142.146 13.6018V12.0592C142.05 12.1388 141.885 12.2126 141.652 12.2808C141.425 12.349 141.169 12.4086 140.885 12.4598C140.601 12.5109 140.32 12.5564 140.041 12.5961C139.763 12.6359 139.521 12.67 139.317 12.6984C138.857 12.7609 138.445 12.8632 138.081 13.0052C137.718 13.1473 137.431 13.3461 137.22 13.6018C137.01 13.8518 136.905 14.1757 136.905 14.5734C136.905 15.1416 137.112 15.5706 137.527 15.8604C137.942 16.1501 138.47 16.295 139.112 16.295ZM154.862 5.20694V7.59331H147.337V5.20694H154.862ZM149.195 2.07058H152.28V14.3604C152.28 14.7751 152.343 15.0933 152.468 15.3149C152.598 15.5308 152.769 15.6785 152.979 15.7581C153.189 15.8376 153.422 15.8774 153.678 15.8774C153.871 15.8774 154.047 15.8632 154.206 15.8348C154.371 15.8064 154.496 15.7808 154.581 15.7581L155.101 18.17C154.936 18.2268 154.7 18.2893 154.394 18.3575C154.093 18.4257 153.723 18.4655 153.286 18.4768C152.513 18.4996 151.817 18.3831 151.198 18.1274C150.578 17.866 150.087 17.4626 149.723 16.9172C149.365 16.3717 149.189 15.6899 149.195 14.8717V2.07058ZM157.443 18.2979V5.20694H160.528V18.2979H157.443ZM158.994 3.34899C158.505 3.34899 158.085 3.18706 157.732 2.86319C157.38 2.53365 157.204 2.13876 157.204 1.67853C157.204 1.21262 157.38 0.817737 157.732 0.493873C158.085 0.164328 158.505 -0.000444412 158.994 -0.000444412C159.488 -0.000444412 159.909 0.164328 160.255 0.493873C160.607 0.817737 160.784 1.21262 160.784 1.67853C160.784 2.13876 160.607 2.53365 160.255 2.86319C159.909 3.18706 159.488 3.34899 158.994 3.34899ZM175.394 5.20694L170.732 18.2979H167.323L162.661 5.20694H165.95L168.959 14.9314H169.095L172.112 5.20694H175.394ZM182.879 18.5535C181.566 18.5535 180.433 18.2808 179.478 17.7354C178.529 17.1842 177.799 16.4058 177.288 15.4001C176.776 14.3888 176.521 13.1984 176.521 11.8291C176.521 10.4825 176.776 9.30069 177.288 8.28365C177.805 7.26092 178.526 6.46546 179.453 5.89728C180.379 5.32342 181.467 5.03649 182.717 5.03649C183.524 5.03649 184.285 5.16717 185.001 5.42853C185.722 5.68421 186.359 6.08194 186.91 6.62172C187.467 7.16149 187.904 7.84899 188.222 8.68422C188.541 9.51376 188.7 10.5024 188.7 11.6501V12.5961H177.97V10.5166H185.742C185.737 9.92569 185.609 9.40012 185.359 8.9399C185.109 8.47399 184.759 8.10751 184.311 7.84047C183.867 7.57342 183.35 7.4399 182.759 7.4399C182.129 7.4399 181.575 7.59331 181.097 7.90012C180.62 8.20126 180.248 8.59899 179.981 9.09331C179.72 9.58194 179.586 10.1189 179.58 10.7041V12.5194C179.58 13.2808 179.72 13.9342 179.998 14.4797C180.276 15.0194 180.666 15.4342 181.166 15.724C181.666 16.0081 182.251 16.1501 182.921 16.1501C183.37 16.1501 183.776 16.0876 184.14 15.9626C184.504 15.8319 184.819 15.6416 185.086 15.3916C185.353 15.1416 185.555 14.8319 185.691 14.4626L188.572 14.7865C188.39 15.5479 188.044 16.2126 187.532 16.7808C187.026 17.3433 186.379 17.7808 185.589 18.0933C184.799 18.4001 183.896 18.5535 182.879 18.5535ZM5.85529 43.528C4.82688 43.528 3.90643 43.2638 3.09393 42.7354C2.28143 42.2069 1.63938 41.4399 1.16779 40.4342C0.6962 39.4285 0.460405 38.2069 0.460405 36.7694C0.460405 35.3149 0.699041 34.0876 1.17631 33.0876C1.65927 32.0819 2.30984 31.3234 3.12802 30.8121C3.9462 30.295 4.85813 30.0365 5.86381 30.0365C6.63086 30.0365 7.26154 30.1672 7.75586 30.4285C8.25018 30.6842 8.64222 30.9939 8.932 31.3575C9.22177 31.7155 9.4462 32.0535 9.60529 32.3717H9.73313V25.8433H12.8269V43.2979H9.79279V41.2354H9.60529C9.4462 41.5535 9.21609 41.8916 8.91495 42.2496C8.61381 42.6018 8.21609 42.903 7.72177 43.153C7.22745 43.403 6.60529 43.528 5.85529 43.528ZM6.71609 40.9967C7.3695 40.9967 7.92631 40.8206 8.38654 40.4683C8.84677 40.1104 9.1962 39.6132 9.43484 38.9768C9.67347 38.3405 9.79279 37.599 9.79279 36.7524C9.79279 35.9058 9.67347 35.17 9.43484 34.545C9.20188 33.92 8.85529 33.4342 8.39506 33.0876C7.94052 32.741 7.38086 32.5677 6.71609 32.5677C6.02859 32.5677 5.45472 32.7467 4.9945 33.1047C4.53427 33.4626 4.18768 33.9569 3.95472 34.5876C3.72177 35.2183 3.60529 35.9399 3.60529 36.7524C3.60529 37.5706 3.72177 38.3007 3.95472 38.9427C4.19336 39.5791 4.54279 40.0819 5.00302 40.4513C5.46893 40.8149 6.03995 40.9967 6.71609 40.9967ZM19.8816 43.5621C19.052 43.5621 18.3049 43.4143 17.6401 43.1189C16.981 42.8177 16.4583 42.3746 16.0719 41.7893C15.6912 41.2041 15.5009 40.4825 15.5009 39.6246C15.5009 38.8859 15.6373 38.2751 15.91 37.7922C16.1827 37.3092 16.5549 36.9229 17.0265 36.6331C17.498 36.3433 18.0293 36.1246 18.6202 35.9768C19.2168 35.8234 19.8333 35.7126 20.4696 35.6444C21.2367 35.5649 21.8588 35.4939 22.3361 35.4314C22.8134 35.3632 23.16 35.2609 23.3759 35.1246C23.5975 34.9825 23.7083 34.7638 23.7083 34.4683V34.4172C23.7083 33.7751 23.5179 33.278 23.1373 32.9257C22.7566 32.5734 22.2083 32.3973 21.4924 32.3973C20.7367 32.3973 20.1373 32.5621 19.6941 32.8916C19.2566 33.2211 18.9611 33.6104 18.8077 34.0592L15.927 33.6501C16.1543 32.8547 16.5293 32.1899 17.052 31.6558C17.5748 31.116 18.214 30.7126 18.9696 30.4456C19.7253 30.1729 20.5605 30.0365 21.4753 30.0365C22.106 30.0365 22.7338 30.1104 23.3588 30.2581C23.9838 30.4058 24.5549 30.6501 25.0719 30.991C25.589 31.3263 26.0037 31.7836 26.3162 32.3632C26.6344 32.9427 26.7935 33.6672 26.7935 34.5365V43.2979H23.8276V41.4996H23.7253C23.5378 41.8632 23.2736 42.2041 22.9327 42.5223C22.5975 42.8348 22.1742 43.0876 21.6628 43.2808C21.1571 43.4683 20.5634 43.5621 19.8816 43.5621ZM20.6827 41.295C21.302 41.295 21.839 41.1729 22.2935 40.9285C22.748 40.6785 23.0975 40.349 23.3418 39.9399C23.5918 39.5308 23.7168 39.0848 23.7168 38.6018V37.0592C23.6202 37.1388 23.4554 37.2126 23.2225 37.2808C22.9952 37.349 22.7395 37.4086 22.4554 37.4598C22.1713 37.5109 21.8901 37.5564 21.6117 37.5961C21.3333 37.6359 21.0918 37.67 20.8873 37.6984C20.427 37.7609 20.0151 37.8632 19.6515 38.0052C19.2878 38.1473 19.0009 38.3461 18.7907 38.6018C18.5804 38.8518 18.4753 39.1757 18.4753 39.5734C18.4753 40.1416 18.6827 40.5706 19.0975 40.8604C19.5123 41.1501 20.0407 41.295 20.6827 41.295ZM36.4327 30.2069V32.5933H28.9071V30.2069H36.4327ZM30.7651 27.0706H33.8503V39.3604C33.8503 39.7751 33.9128 40.0933 34.0378 40.3149C34.1685 40.5308 34.339 40.6785 34.5492 40.7581C34.7594 40.8376 34.9924 40.8774 35.248 40.8774C35.4412 40.8774 35.6174 40.8632 35.7765 40.8348C35.9412 40.8064 36.0662 40.7808 36.1515 40.7581L36.6713 43.17C36.5066 43.2268 36.2708 43.2893 35.964 43.3575C35.6628 43.4257 35.2935 43.4655 34.856 43.4768C34.0833 43.4996 33.3873 43.3831 32.7679 43.1274C32.1486 42.866 31.6571 42.4626 31.2935 41.9172C30.9355 41.3717 30.7594 40.6899 30.7651 39.8717V27.0706ZM42.78 43.5621C41.9505 43.5621 41.2033 43.4143 40.5385 43.1189C39.8794 42.8177 39.3567 42.3746 38.9703 41.7893C38.5897 41.2041 38.3993 40.4825 38.3993 39.6246C38.3993 38.8859 38.5357 38.2751 38.8084 37.7922C39.0811 37.3092 39.4533 36.9229 39.9249 36.6331C40.3965 36.3433 40.9277 36.1246 41.5186 35.9768C42.1152 35.8234 42.7317 35.7126 43.3681 35.6444C44.1351 35.5649 44.7573 35.4939 45.2346 35.4314C45.7118 35.3632 46.0584 35.2609 46.2743 35.1246C46.4959 34.9825 46.6067 34.7638 46.6067 34.4683V34.4172C46.6067 33.7751 46.4164 33.278 46.0357 32.9257C45.655 32.5734 45.1067 32.3973 44.3908 32.3973C43.6351 32.3973 43.0357 32.5621 42.5925 32.8916C42.155 33.2211 41.8596 33.6104 41.7061 34.0592L38.8255 33.6501C39.0527 32.8547 39.4277 32.1899 39.9505 31.6558C40.4732 31.116 41.1124 30.7126 41.8681 30.4456C42.6238 30.1729 43.459 30.0365 44.3738 30.0365C45.0044 30.0365 45.6323 30.1104 46.2573 30.2581C46.8823 30.4058 47.4533 30.6501 47.9703 30.991C48.4874 31.3263 48.9022 31.7836 49.2147 32.3632C49.5328 32.9427 49.6919 33.6672 49.6919 34.5365V43.2979H46.726V41.4996H46.6238C46.4363 41.8632 46.1721 42.2041 45.8311 42.5223C45.4959 42.8348 45.0726 43.0876 44.5613 43.2808C44.0556 43.4683 43.4618 43.5621 42.78 43.5621ZM43.5811 41.295C44.2005 41.295 44.7374 41.1729 45.1919 40.9285C45.6465 40.6785 45.9959 40.349 46.2402 39.9399C46.4902 39.5308 46.6152 39.0848 46.6152 38.6018V37.0592C46.5186 37.1388 46.3539 37.2126 46.1209 37.2808C45.8936 37.349 45.638 37.4086 45.3539 37.4598C45.0698 37.5109 44.7885 37.5564 44.5101 37.5961C44.2317 37.6359 43.9902 37.67 43.7857 37.6984C43.3255 37.7609 42.9135 37.8632 42.5499 38.0052C42.1863 38.1473 41.8993 38.3461 41.6891 38.6018C41.4789 38.8518 41.3738 39.1757 41.3738 39.5734C41.3738 40.1416 41.5811 40.5706 41.9959 40.8604C42.4107 41.1501 42.9391 41.295 43.5811 41.295ZM62.5144 43.5621C61.6848 43.5621 60.9377 43.4143 60.2729 43.1189C59.6138 42.8177 59.0911 42.3746 58.7047 41.7893C58.324 41.2041 58.1337 40.4825 58.1337 39.6246C58.1337 38.8859 58.2701 38.2751 58.5428 37.7922C58.8155 37.3092 59.1877 36.9229 59.6593 36.6331C60.1309 36.3433 60.6621 36.1246 61.253 35.9768C61.8496 35.8234 62.4661 35.7126 63.1025 35.6444C63.8695 35.5649 64.4917 35.4939 64.9689 35.4314C65.4462 35.3632 65.7928 35.2609 66.0087 35.1246C66.2303 34.9825 66.3411 34.7638 66.3411 34.4683V34.4172C66.3411 33.7751 66.1507 33.278 65.7701 32.9257C65.3894 32.5734 64.8411 32.3973 64.1252 32.3973C63.3695 32.3973 62.7701 32.5621 62.3269 32.8916C61.8894 33.2211 61.5939 33.6104 61.4405 34.0592L58.5598 33.6501C58.7871 32.8547 59.1621 32.1899 59.6848 31.6558C60.2076 31.116 60.8468 30.7126 61.6025 30.4456C62.3581 30.1729 63.1934 30.0365 64.1081 30.0365C64.7388 30.0365 65.3667 30.1104 65.9917 30.2581C66.6167 30.4058 67.1877 30.6501 67.7047 30.991C68.2218 31.3263 68.6365 31.7836 68.949 32.3632C69.2672 32.9427 69.4263 33.6672 69.4263 34.5365V43.2979H66.4604V41.4996H66.3581C66.1706 41.8632 65.9064 42.2041 65.5655 42.5223C65.2303 42.8348 64.807 43.0876 64.2956 43.2808C63.79 43.4683 63.1962 43.5621 62.5144 43.5621ZM63.3155 41.295C63.9348 41.295 64.4718 41.1729 64.9263 40.9285C65.3809 40.6785 65.7303 40.349 65.9746 39.9399C66.2246 39.5308 66.3496 39.0848 66.3496 38.6018V37.0592C66.253 37.1388 66.0882 37.2126 65.8553 37.2808C65.628 37.349 65.3723 37.4086 65.0882 37.4598C64.8042 37.5109 64.5229 37.5564 64.2445 37.5961C63.9661 37.6359 63.7246 37.67 63.5201 37.6984C63.0598 37.7609 62.6479 37.8632 62.2843 38.0052C61.9206 38.1473 61.6337 38.3461 61.4235 38.6018C61.2132 38.8518 61.1081 39.1757 61.1081 39.5734C61.1081 40.1416 61.3155 40.5706 61.7303 40.8604C62.1451 41.1501 62.6735 41.295 63.3155 41.295ZM75.6138 35.6274V43.2979H72.5286V30.2069H75.4775V32.4314H75.6309C75.932 31.6984 76.4121 31.116 77.0712 30.6842C77.736 30.2524 78.557 30.0365 79.5343 30.0365C80.4377 30.0365 81.2246 30.2297 81.8951 30.616C82.5712 31.0024 83.0939 31.5621 83.4632 32.295C83.8382 33.028 84.0229 33.9172 84.0172 34.9626V43.2979H80.932V35.4399C80.932 34.5649 80.7047 33.8802 80.2502 33.3859C79.8013 32.8916 79.1792 32.6444 78.3837 32.6444C77.8439 32.6444 77.3638 32.7638 76.9434 33.0024C76.5286 33.2354 76.2019 33.5734 75.9632 34.0166C75.7303 34.4598 75.6138 34.9967 75.6138 35.6274ZM90.9206 43.5621C90.0911 43.5621 89.3439 43.4143 88.6792 43.1189C88.0201 42.8177 87.4973 42.3746 87.111 41.7893C86.7303 41.2041 86.54 40.4825 86.54 39.6246C86.54 38.8859 86.6763 38.2751 86.949 37.7922C87.2218 37.3092 87.5939 36.9229 88.0655 36.6331C88.5371 36.3433 89.0684 36.1246 89.6593 35.9768C90.2559 35.8234 90.8723 35.7126 91.5087 35.6444C92.2757 35.5649 92.8979 35.4939 93.3752 35.4314C93.8525 35.3632 94.199 35.2609 94.415 35.1246C94.6365 34.9825 94.7473 34.7638 94.7473 34.4683V34.4172C94.7473 33.7751 94.557 33.278 94.1763 32.9257C93.7956 32.5734 93.2473 32.3973 92.5314 32.3973C91.7757 32.3973 91.1763 32.5621 90.7331 32.8916C90.2956 33.2211 90.0002 33.6104 89.8468 34.0592L86.9661 33.6501C87.1934 32.8547 87.5684 32.1899 88.0911 31.6558C88.6138 31.116 89.253 30.7126 90.0087 30.4456C90.7644 30.1729 91.5996 30.0365 92.5144 30.0365C93.1451 30.0365 93.7729 30.1104 94.3979 30.2581C95.0229 30.4058 95.5939 30.6501 96.111 30.991C96.628 31.3263 97.0428 31.7836 97.3553 32.3632C97.6735 32.9427 97.8326 33.6672 97.8326 34.5365V43.2979H94.8667V41.4996H94.7644C94.5769 41.8632 94.3127 42.2041 93.9718 42.5223C93.6365 42.8348 93.2132 43.0876 92.7019 43.2808C92.1962 43.4683 91.6025 43.5621 90.9206 43.5621ZM91.7218 41.295C92.3411 41.295 92.878 41.1729 93.3326 40.9285C93.7871 40.6785 94.1365 40.349 94.3809 39.9399C94.6309 39.5308 94.7559 39.0848 94.7559 38.6018V37.0592C94.6593 37.1388 94.4945 37.2126 94.2615 37.2808C94.0343 37.349 93.7786 37.4086 93.4945 37.4598C93.2104 37.5109 92.9292 37.5564 92.6507 37.5961C92.3723 37.6359 92.1309 37.67 91.9263 37.6984C91.4661 37.7609 91.0542 37.8632 90.6905 38.0052C90.3269 38.1473 90.04 38.3461 89.8297 38.6018C89.6195 38.8518 89.5144 39.1757 89.5144 39.5734C89.5144 40.1416 89.7218 40.5706 90.1365 40.8604C90.5513 41.1501 91.0797 41.295 91.7218 41.295ZM104.02 25.8433V43.2979H100.935V25.8433H104.02ZM109.11 48.2069C108.69 48.2069 108.301 48.1729 107.943 48.1047C107.59 48.0422 107.309 47.9683 107.099 47.8831L107.815 45.4797C108.264 45.6104 108.664 45.6729 109.017 45.6672C109.369 45.6615 109.678 45.5507 109.945 45.3348C110.218 45.1246 110.448 44.7723 110.636 44.278L110.9 43.5706L106.153 30.2069H109.426L112.443 40.0933H112.579L115.605 30.2069H118.886L113.644 44.8831C113.4 45.5763 113.076 46.17 112.673 46.6643C112.269 47.1643 111.775 47.545 111.19 47.8064C110.61 48.0734 109.917 48.2069 109.11 48.2069ZM131.367 33.6672L128.555 33.974C128.475 33.6899 128.336 33.4229 128.137 33.1729C127.944 32.9229 127.683 32.7211 127.353 32.5677C127.024 32.4143 126.62 32.3376 126.143 32.3376C125.501 32.3376 124.961 32.4768 124.524 32.7552C124.092 33.0336 123.879 33.3944 123.884 33.8376C123.879 34.2183 124.018 34.528 124.302 34.7666C124.592 35.0052 125.069 35.2013 125.734 35.3547L127.967 35.8319C129.205 36.099 130.126 36.5223 130.728 37.1018C131.336 37.6814 131.643 38.4399 131.649 39.3774C131.643 40.2013 131.401 40.9285 130.924 41.5592C130.453 42.1842 129.796 42.6729 128.955 43.0251C128.115 43.3774 127.149 43.5535 126.058 43.5535C124.455 43.5535 123.166 43.2183 122.188 42.5479C121.211 41.8717 120.629 40.9314 120.441 39.7268L123.45 39.4371C123.586 40.028 123.876 40.474 124.319 40.7751C124.762 41.0763 125.339 41.2268 126.049 41.2268C126.782 41.2268 127.37 41.0763 127.813 40.7751C128.262 40.474 128.487 40.1018 128.487 39.6586C128.487 39.2836 128.342 38.974 128.052 38.7297C127.768 38.4854 127.325 38.2979 126.722 38.1672L124.49 37.6984C123.234 37.4371 122.305 36.9967 121.703 36.3774C121.1 35.7524 120.802 34.9626 120.808 34.0081C120.802 33.2013 121.021 32.5024 121.464 31.9115C121.913 31.3149 122.535 30.8547 123.33 30.5308C124.132 30.2013 125.055 30.0365 126.1 30.0365C127.634 30.0365 128.842 30.3632 129.722 31.0166C130.609 31.67 131.157 32.5535 131.367 33.6672ZM134.193 43.2979V30.2069H137.278V43.2979H134.193ZM135.744 28.349C135.255 28.349 134.835 28.1871 134.482 27.8632C134.13 27.5336 133.954 27.1388 133.954 26.6785C133.954 26.2126 134.13 25.8177 134.482 25.4939C134.835 25.1643 135.255 24.9996 135.744 24.9996C136.238 24.9996 136.659 25.1643 137.005 25.4939C137.357 25.8177 137.534 26.2126 137.534 26.6785C137.534 27.1388 137.357 27.5336 137.005 27.8632C136.659 28.1871 136.238 28.349 135.744 28.349ZM150.797 33.6672L147.985 33.974C147.905 33.6899 147.766 33.4229 147.567 33.1729C147.374 32.9229 147.112 32.7211 146.783 32.5677C146.453 32.4143 146.05 32.3376 145.573 32.3376C144.931 32.3376 144.391 32.4768 143.953 32.7552C143.521 33.0336 143.308 33.3944 143.314 33.8376C143.308 34.2183 143.448 34.528 143.732 34.7666C144.021 35.0052 144.499 35.2013 145.164 35.3547L147.396 35.8319C148.635 36.099 149.556 36.5223 150.158 37.1018C150.766 37.6814 151.073 38.4399 151.078 39.3774C151.073 40.2013 150.831 40.9285 150.354 41.5592C149.882 42.1842 149.226 42.6729 148.385 43.0251C147.544 43.3774 146.578 43.5535 145.487 43.5535C143.885 43.5535 142.595 43.2183 141.618 42.5479C140.641 41.8717 140.058 40.9314 139.871 39.7268L142.879 39.4371C143.016 40.028 143.306 40.474 143.749 40.7751C144.192 41.0763 144.769 41.2268 145.479 41.2268C146.212 41.2268 146.8 41.0763 147.243 40.7751C147.692 40.474 147.916 40.1018 147.916 39.6586C147.916 39.2836 147.771 38.974 147.482 38.7297C147.198 38.4854 146.754 38.2979 146.152 38.1672L143.919 37.6984C142.664 37.4371 141.735 36.9967 141.132 36.3774C140.53 35.7524 140.232 34.9626 140.237 34.0081C140.232 33.2013 140.45 32.5024 140.894 31.9115C141.343 31.3149 141.965 30.8547 142.76 30.5308C143.561 30.2013 144.485 30.0365 145.53 30.0365C147.064 30.0365 148.271 30.3632 149.152 31.0166C150.039 31.67 150.587 32.5535 150.797 33.6672Z" fill="black"/>
</svg>
